<?xml version="1.0" encoding="UTF-8" standalone="no"?>
<!-- Created with Inkscape (http://www.inkscape.org/) -->

<svg
   width="695.8075"
   height="372.9223"
   viewBox="0 0 184.09907 98.669022"
   version="1.1"
   id="svg1"
   xml:space="preserve"
   inkscape:version="1.3.2 (091e20ef0f, 2023-11-25)"
   sodipodi:docname="logo-small.svg"
   inkscape:export-filename="wakepy-social-share-image.png"
   inkscape:export-xdpi="96"
   inkscape:export-ydpi="96"
   xmlns:inkscape="http://www.inkscape.org/namespaces/inkscape"
   xmlns:sodipodi="http://sodipodi.sourceforge.net/DTD/sodipodi-0.dtd"
   xmlns:xlink="http://www.w3.org/1999/xlink"
   xmlns="http://www.w3.org/2000/svg"
   xmlns:svg="http://www.w3.org/2000/svg"><sodipodi:namedview
     id="namedview1"
     pagecolor="#ffffff"
     bordercolor="#000000"
     borderopacity="0.25"
     inkscape:showpageshadow="2"
     inkscape:pageopacity="0.0"
     inkscape:pagecheckerboard="0"
     inkscape:deskcolor="#d1d1d1"
     inkscape:document-units="mm"
     inkscape:zoom="0.70710678"
     inkscape:cx="222.73864"
     inkscape:cy="298.39906"
     inkscape:window-width="1600"
     inkscape:window-height="836"
     inkscape:window-x="0"
     inkscape:window-y="0"
     inkscape:window-maximized="1"
     inkscape:current-layer="layer4"
     showborder="true"
     showguides="false" /><defs
     id="defs1"><linearGradient
       id="linearGradient22"
       inkscape:collect="always"><stop
         style="stop-color:#122124;stop-opacity:1;"
         offset="0"
         id="stop22" /><stop
         style="stop-color:#21383d;stop-opacity:1;"
         offset="1"
         id="stop23" /></linearGradient><linearGradient
       inkscape:collect="always"
       xlink:href="#linearGradient22"
       id="linearGradient23"
       x1="400.0463"
       y1="254.47308"
       x2="402.12625"
       y2="330.4606"
       gradientUnits="userSpaceOnUse"
       gradientTransform="matrix(0.73600922,0,0,0.74952604,135.3782,67.722922)" /></defs><g
     inkscape:groupmode="layer"
     id="layer4"
     inkscape:label="sphere-bg"
     transform="translate(-335.43547,-221.11996)"
     style="display:inline"><rect
       style="fill:url(#linearGradient23);fill-rule:nonzero;stroke:#3c3c3c;stroke-width:0.400001;stroke-linejoin:bevel;stroke-dasharray:none;stroke-dashoffset:1.57133;stroke-opacity:1;paint-order:fill markers stroke"
       id="rect21"
       width="183.69907"
       height="98.269028"
       x="335.63547"
       y="221.31996"
       rx="10"
       ry="10" /><path
       style="font-size:63.7838px;font-family:Barlow;-inkscape-font-specification:'Barlow, Normal';display:inline;fill:#c7c7c7;fill-opacity:1;stroke:none;stroke-width:0.999997;stroke-linejoin:bevel;stroke-dashoffset:1.57133;stroke-opacity:1;paint-order:fill markers stroke"
       d="m 401.62053,248.68523 h 1.09828 c 0.15377,0 0.2636,-0.0652 0.30753,-0.23916 l 2.28441,-8.02286 c 0.0221,-0.087 0.10984,-0.087 0.13181,0 l 2.37228,8.02286 c 0.0439,0.17394 0.15376,0.23916 0.30751,0.23916 h 1.07631 c 0.15377,0 0.2636,-0.0652 0.30753,-0.23916 l 3.11911,-10.41449 c 0.0659,-0.19568 -0.0439,-0.32614 -0.2416,-0.32614 l -1.01045,-0.0217 c -0.15374,0 -0.28554,0.0652 -0.32948,0.23916 l -2.35031,8.47945 c -0.0221,0.087 -0.10983,0.087 -0.1318,0 l -2.39425,-8.47945 c -0.0439,-0.17393 -0.15376,-0.23914 -0.30751,-0.23914 h -0.96649 c -0.15376,0 -0.26359,0.0652 -0.30751,0.23914 l -2.35032,8.47945 c -0.0221,0.087 -0.10983,0.087 -0.1318,0 l -2.28443,-8.47945 c -0.0439,-0.17393 -0.15376,-0.23914 -0.30751,-0.23914 h -1.03238 c -0.19769,0 -0.30753,0.13044 -0.24163,0.32612 l 3.07518,10.43624 c 0.0439,0.17393 0.15377,0.23916 0.30752,0.23916 z m 17.08925,-11.17546 c -2.26244,0 -3.8879,1.0871 -4.17344,2.67428 -0.0221,0.15219 0.0879,0.21741 0.26358,0.23916 l 1.07631,0.13046 c 0.17572,0.0217 0.28555,-0.0436 0.32949,-0.21743 0.24162,-0.91316 1.14221,-1.47846 2.52605,-1.47846 1.82313,0 2.56997,0.9784 2.56997,2.39164 v 0.80446 c 0,0.0652 -0.0439,0.10871 -0.10984,0.10871 h -2.54801 c -2.85552,0 -4.5249,1.348 -4.5249,3.52223 0,2.28292 1.75724,3.17435 3.62431,3.17435 1.38383,0 2.61392,-0.43484 3.42665,-1.28278 0.0658,-0.087 0.13179,-0.0436 0.13179,0.0436 v 0.78272 c 0,0.17394 0.10981,0.28264 0.28554,0.28264 h 0.98846 c 0.17573,0 0.28555,-0.1087 0.28555,-0.28264 v -7.24018 c 0,-2.15247 -1.47169,-3.65268 -4.15151,-3.65268 z m -0.61503,10.02313 c -1.3399,0 -2.41621,-0.60878 -2.41621,-1.93505 0,-1.41324 1.29596,-2.2177 3.20698,-2.2177 h 2.30638 c 0.0659,0 0.10984,0.0435 0.10984,0.10871 v 1.67415 c 0,1.52194 -1.58153,2.36989 -3.20699,2.36989 z m 8.28104,1.15233 h 0.98844 c 0.17572,0 0.28556,-0.10871 0.28556,-0.28264 v -3.6092 c 0,-0.0436 0.0221,-0.10872 0.0439,-0.1522 l 2.39425,-2.4786 c 0.0439,-0.0436 0.1318,-0.0436 0.15377,0.0218 l 2.78962,6.2835 c 0.0659,0.13045 0.17573,0.21742 0.32949,0.21742 h 1.03238 c 0.21966,0 0.30752,-0.13046 0.21966,-0.32614 l -3.29485,-7.19666 c -0.0221,-0.0436 -0.0221,-0.10871 0.0221,-0.15217 l 2.72375,-2.97868 c 0.15375,-0.17395 0.0658,-0.34788 -0.17573,-0.34788 h -1.16417 c -0.13179,0 -0.26359,0.0436 -0.35146,0.1522 l -4.5908,4.76153 c -0.0659,0.087 -0.13181,0.0218 -0.13181,-0.0652 v -8.78383 c 0,-0.17394 -0.10982,-0.28265 -0.28554,-0.28265 h -0.98845 c -0.17573,0 -0.28556,0.10871 -0.28556,0.28265 v 14.6542 c 0,0.17394 0.10983,0.28266 0.28556,0.28266 z m 14.62908,-1.15233 c -1.60348,0 -2.67979,-0.86969 -2.98731,-2.13074 -0.0879,-0.32612 -0.1318,-0.86967 -0.1318,-1.58717 0,-0.0652 0.0439,-0.10871 0.10984,-0.10871 h 7.02899 c 0.17572,0 0.28554,-0.10871 0.28554,-0.28265 0,-1.02188 -0.0221,-1.58717 -0.13179,-2.17421 -0.39539,-2.28292 -1.77921,-3.73965 -4.39312,-3.73965 -2.17459,0 -3.7561,1.23929 -4.23935,3.10912 -0.17573,0.67401 -0.1977,1.41325 -0.1977,2.52209 0,1.21757 0.10983,2.19595 0.41734,3.00042 0.59308,1.67414 2.02085,2.71777 4.10758,2.71777 1.97689,0 3.40465,-0.95666 4.0856,-2.36989 0.0879,-0.15219 0.0221,-0.28266 -0.13178,-0.36962 l -0.63701,-0.34787 c -0.15377,-0.087 -0.30753,-0.0217 -0.37342,0.13044 -0.50521,0.97841 -1.44974,1.60893 -2.81161,1.63067 z m -0.21965,-8.67512 c 1.51562,0 2.52605,0.86968 2.83357,2.13073 0.0658,0.30439 0.10982,0.80446 0.13179,1.3915 0,0.0652 -0.044,0.10871 -0.10982,0.10871 h -5.64516 c -0.0659,0 -0.10984,-0.0436 -0.10984,-0.10871 0.0221,-0.63053 0.0659,-1.13059 0.17573,-1.47847 0.28556,-1.19583 1.23007,-2.04376 2.72373,-2.04376 z m 16.25455,1.56543 c -0.52717,-1.76111 -1.93297,-2.91344 -4.0197,-2.91344 -1.16417,0 -2.15263,0.47832 -2.78963,1.32627 -0.0658,0.0652 -0.1318,0.0436 -0.1318,-0.0435 v -0.8262 c 0,-0.17394 -0.10982,-0.28265 -0.28554,-0.28265 h -0.98846 c -0.17572,0 -0.28555,0.10871 -0.28555,0.28265 v 14.65421 c 0,0.17394 0.10983,0.28265 0.28555,0.28265 h 0.98846 c 0.17572,0 0.28554,-0.10871 0.28554,-0.28265 v -5.02244 c 0,-0.087 0.0659,-0.13045 0.1318,-0.0435 0.637,0.82621 1.62546,1.30453 2.78963,1.30453 2.13067,0 3.53646,-1.17408 4.06364,-2.97867 0.21965,-0.73924 0.26358,-1.63067 0.26358,-2.69604 0,-1.10884 -0.0658,-2.00027 -0.30752,-2.76124 z m -1.75724,5.50078 c -0.37343,0.93489 -1.25204,1.58717 -2.43818,1.58717 -1.16418,0 -1.95493,-0.67401 -2.30639,-1.63065 -0.26359,-0.58704 -0.39538,-1.23932 -0.39538,-2.69604 0,-1.43499 0.10982,-2.08726 0.37341,-2.65254 0.35145,-0.9784 1.14221,-1.67415 2.35032,-1.67415 1.23007,0 2.1746,0.65226 2.52605,1.69589 0.26358,0.58703 0.39538,1.21755 0.39538,2.6308 0,1.5002 -0.17574,2.15246 -0.50521,2.73952 z m 4.5249,7.10969 h 0.15377 c 2.43817,0 3.09715,-0.6088 4.08561,-3.3918 l 4.04165,-11.63205 c 0.0659,-0.19568 -0.0439,-0.32612 -0.24162,-0.32612 h -1.05434 c -0.15376,0 -0.26359,0.0652 -0.30753,0.23916 l -2.76766,8.52292 c -0.0221,0.10871 -0.10983,0.10871 -0.13179,0 l -2.83356,-8.52292 c -0.0439,-0.1522 -0.17573,-0.23916 -0.32948,-0.23916 h -1.03238 c -0.19769,0 -0.30753,0.13044 -0.24163,0.32612 l 3.69022,10.61018 c 0.0221,0.0652 0.0221,0.087 0,0.13046 -0.74683,2.43511 -1.23008,2.95692 -2.87749,2.95692 h -0.15377 c -0.0879,0 -0.15377,0.10871 -0.15377,0.28265 v 0.76098 c 0,0.17394 0.0659,0.28266 0.15377,0.28266 z"
       id="text2"
       aria-label="wakepy" /></g><g
     inkscape:label="figure"
     inkscape:groupmode="layer"
     id="layer1"
     transform="translate(-401.77479,-280.74524)"
     style="display:inline"><path
       style="fill:#ffffff;fill-opacity:1;stroke:#949494;stroke-width:0.399999;stroke-dasharray:none;stroke-dashoffset:1.57133;stroke-opacity:0.384233;paint-order:stroke markers fill"
       d="M 397.41974,372.24501 H 584.64532"
       id="path2" /><path
       style="fill:#a2a2a2;fill-opacity:1;stroke:#737373;stroke-width:2;stroke-dasharray:none;stroke-dashoffset:1.57133;stroke-opacity:1;paint-order:stroke markers fill"
       d="m 460.21896,366.91279 c 0,0 0.0965,-40.17723 0,-43.40707 -0.0965,-3.22985 2.25887,-5.60032 4.9725,-5.54957 2.71363,0.0508 66.80495,0.0387 69.61495,0 2.81001,-0.0387 5.08324,2.09411 4.9725,5.4429 -0.11073,3.34879 0,43.39073 0,43.39073"
       id="path4"
       sodipodi:nodetypes="czzzzc" /><path
       style="fill:#64c4ec;fill-opacity:1;stroke:#737373;stroke-width:1;stroke-dasharray:none;stroke-dashoffset:1.57133;stroke-opacity:1;paint-order:stroke markers fill"
       d="m 463.82111,367.0114 v -44.47211 h 72.35565 v 3.54814 40.64052"
       id="path5"
       sodipodi:nodetypes="ccccc" /><path
       style="fill:#284646;fill-opacity:1;stroke:#0e2f2f;stroke-width:2;stroke-dasharray:none;stroke-dashoffset:1.57133;stroke-opacity:1;paint-order:stroke markers fill"
       d="m 429.80844,363.7622 c -1.09964,-2.1059 -9.38459,-31.73686 -9.38459,-31.73686 l 20.18875,-22.22744 -0.76374,-0.99646 -20.80906,22.87263 9.62872,32.51811"
       id="path8"
       sodipodi:nodetypes="cccccc" /><g
       id="g25"
       transform="rotate(7.6683353,-1258.2885,2601.959)"
       style="fill:#284646;fill-opacity:1;stroke:#0e2f2f;stroke-opacity:1"><path
         style="fill:#284646;fill-opacity:1;stroke:#0e2f2f;stroke-width:2;stroke-linecap:round;stroke-dasharray:none;stroke-dashoffset:1.57133;stroke-opacity:1;paint-order:stroke markers fill"
         d="m 114.59695,93.59314 c 0,0 -0.67151,-1.038319 -0.37905,-1.438931 1.04592,-1.432705 2.80035,-2.945294 3.90951,-3.572972 0.36589,-0.207057 1.21393,0.342164 1.21393,0.342164"
         id="path12"
         sodipodi:nodetypes="cssc" /><path
         style="fill:#284646;fill-opacity:1;stroke:#0e2f2f;stroke-width:2;stroke-dasharray:none;stroke-dashoffset:1.57133;stroke-opacity:1;paint-order:stroke markers fill"
         d="m 124.68216,109.49373 -5.28041,-7.25282 c 0,0 -2.52982,-3.389607 -5.28041,-7.252817 -0.29501,-0.414342 3.46722,-3.338482 3.46722,-3.338482 0,0 2.66195,-3.056568 4.0385,-2.23241 3.76311,2.253025 6.82008,4.866944 6.82008,4.866944 l 7.39137,5.973015 c 0,0 -1.57752,2.84325 -6.02258,6.16394 -2.7494,2.05395 -5.09954,3.29423 -4.99045,3.22273 l -0.0841,-0.0977 -0.0841,-0.0977"
         id="path9"
         sodipodi:nodetypes="ccscsccsccc" /></g><g
       id="g26"
       inkscape:transform-center-x="2.7222863"
       inkscape:transform-center-y="-0.10724712"
       transform="translate(320.61392,211.59391)"
       style="fill:#284646;fill-opacity:1;stroke:#0e2f2f;stroke-opacity:1"><circle
         style="fill:#284646;fill-opacity:1;stroke:#0e2f2f;stroke-width:1.99999;stroke-dasharray:none;stroke-dashoffset:1.57133;stroke-opacity:1;paint-order:stroke markers fill"
         id="path11"
         cx="99.206589"
         cy="120.73509"
         r="2.3573182" /><circle
         style="fill:#284646;fill-opacity:1;stroke:#0e2f2f;stroke-width:2;stroke-dasharray:none;stroke-dashoffset:1.57133;stroke-opacity:1;paint-order:stroke markers fill"
         id="path11-4"
         cx="99.203156"
         cy="120.70263"
         r="0.81700456" /></g><path
       id="path7"
       style="fill:#284646;fill-opacity:1;stroke:#0e2f2f;stroke-width:2;stroke-dasharray:none;stroke-dashoffset:1.57133;stroke-opacity:1;paint-order:stroke markers fill"
       d="m 433.00997,362.71311 a 8.4514894,8.4514894 0 0 0 -8.45116,8.45117 8.4514894,8.4514894 0 0 0 0.0413,0.58239 h 16.81965 a 8.4514894,8.4514894 0 0 0 0.0419,-0.58239 8.4514894,8.4514894 0 0 0 -8.45168,-8.45117 z" /><ellipse
       style="fill:#737373;fill-opacity:1;stroke:#737373;stroke-width:0.999993;stroke-linecap:butt;stroke-linejoin:bevel;stroke-dasharray:none;stroke-dashoffset:1.57133;stroke-opacity:1;paint-order:fill markers stroke"
       id="path21"
       cx="499.91721"
       cy="319.86172"
       rx="0.50000304"
       ry="0.50000352" /><path
       id="rect2"
       style="fill:#c2c2c2;fill-opacity:1;stroke:#737373;stroke-width:2;stroke-dasharray:none;stroke-dashoffset:1.57133;paint-order:stroke markers fill"
       d="m 452.08368,367.18369 c -0.63958,-0.001 -0.071,1.52593 0.1588,2.06356 0.73073,1.70987 1.38966,1.92244 1.56436,1.92598 7.59586,-0.003 15.1917,-0.0112 22.78757,-0.016 22.90628,0.019 45.81285,0.0409 68.71913,0.0486 0.1747,-0.004 0.83362,-0.21663 1.56436,-1.9265 0.2617,-0.61236 0.90705,-2.19913 -0.126,-2.20527 -3.12274,0.0391 -87.60595,0.12553 -94.66822,0.10963 z"
       sodipodi:nodetypes="sscccscs" /><path
       style="fill:#737373;fill-opacity:0.0862745;stroke:#737373;stroke-width:1;stroke-linecap:round;stroke-linejoin:round;stroke-dasharray:none;stroke-dashoffset:1.57133;stroke-opacity:1;paint-order:stroke markers fill"
       d="m 493.97813,366.77406 0.84834,1.74335 h 10.50098 l 0.69469,-1.13024 0.46951,-0.7486"
       id="path3"
       sodipodi:nodetypes="ccccc" /><g
       id="g27"
       transform="translate(316.44822,211.6474)"><path
         style="fill:#af8445;fill-opacity:1;stroke:#795c30;stroke-width:2.00001;stroke-dasharray:none;stroke-dashoffset:1.57133;stroke-opacity:1;paint-order:stroke markers fill"
         d="m 235.97981,159.82361 -2.53497,-21.66351 15.86887,0.0571 -2.63567,21.5785 z"
         id="path14"
         sodipodi:nodetypes="ccccc" /><path
         style="fill:#caa670;fill-opacity:1;stroke:#665843;stroke-width:2;stroke-dasharray:none;stroke-dashoffset:1.57133;stroke-opacity:1;paint-order:stroke markers fill"
         d="m 231.60054,135.88488 0.0498,2.52005 18.97361,0.0719 0.0479,-2.50189 z"
         id="path15"
         sodipodi:nodetypes="ccccc" /><path
         style="fill:#c49c60;fill-opacity:1;stroke:#665843;stroke-width:2;stroke-dasharray:none;stroke-dashoffset:1.57133;stroke-opacity:1;paint-order:stroke markers fill"
         d="m 234.13826,135.18191 -0.0621,-2.04822 14.08634,0.062 0.0202,2.03935"
         id="path16"
         sodipodi:nodetypes="cccc" /><path
         style="fill:#caa670;fill-opacity:1;stroke:none;stroke-width:1;stroke-linecap:butt;stroke-linejoin:bevel;stroke-dasharray:none;stroke-dashoffset:1.57133;stroke-opacity:1;paint-order:fill markers stroke"
         d="m 235.988,159.93221 -2.47253,-20.50028 9.01515,0.1322 6.37382,7.1659 -2.17467,13.06108 z"
         id="path22"
         sodipodi:nodetypes="cccccc" /><path
         style="fill:#98743c;fill-opacity:1;stroke:#795c30;stroke-width:2;stroke-linecap:round;stroke-linejoin:round;stroke-dasharray:none;stroke-dashoffset:1.57133;stroke-opacity:1;paint-order:stroke markers fill"
         d="m 234.41543,152.60591 h 13.92213 l 1.04671,-8.05778 c -4.49903,0.0219 -12.35831,-0.005 -16.37641,-0.0521 z"
         id="path17"
         sodipodi:nodetypes="ccccc" /><path
         style="fill:#c1934e;fill-opacity:1;stroke:none;stroke-width:1;stroke-linecap:butt;stroke-linejoin:bevel;stroke-dasharray:none;stroke-dashoffset:1.57133;stroke-opacity:1;paint-order:fill markers stroke"
         d="m 249.02227,146.94045 -0.63501,5.74159 -13.95898,0.0258 -1.45908,-8.29523 13.57608,0.0722 z"
         id="path23"
         sodipodi:nodetypes="cccccc" /><path
         style="fill:#dfcaac;fill-opacity:1;stroke:none;stroke-width:1;stroke-linecap:butt;stroke-linejoin:bevel;stroke-dasharray:none;stroke-dashoffset:1.57133;stroke-opacity:1;paint-order:fill markers stroke"
         d="m 239.24113,135.09911 -5.1095,0.0569 -0.12469,-1.95804 3.19193,0.0188 z"
         id="path24" /><path
         style="fill:#dfcaac;fill-opacity:1;stroke:none;stroke-width:1;stroke-linecap:butt;stroke-linejoin:bevel;stroke-dasharray:none;stroke-dashoffset:1.57133;stroke-opacity:1;paint-order:fill markers stroke"
         d="m 242.03753,138.57689 -10.42262,-0.0379 0.0132,-2.60815 8.00201,-0.1937 z"
         id="path24-3"
         sodipodi:nodetypes="ccccc" /></g><g
       id="g1"
       transform="matrix(1.0192438,0,0,0.81922561,382.553,198.52628)"
       style="stroke-width:1.09435"><rect
         style="fill:#304148;fill-opacity:1;stroke:none;stroke-width:1.09435;stroke-linecap:butt;stroke-linejoin:bevel;stroke-dasharray:none;stroke-dashoffset:1.57133;stroke-opacity:1;paint-order:fill markers stroke"
         id="rect28-4"
         width="62.745731"
         height="11.165915"
         x="82.986816"
         y="172.38208"
         ry="2.44133"
         rx="1.962239" /><rect
         style="fill:#27c93f;fill-opacity:1;stroke:none;stroke-width:1.09435;stroke-linecap:butt;stroke-linejoin:bevel;stroke-dasharray:none;stroke-dashoffset:1.57133;stroke-opacity:1;paint-order:fill markers stroke"
         id="rect28-4-4"
         width="43.613049"
         height="7.3676963"
         x="84.63224"
         y="174.24046"
         ry="2.44133"
         rx="1.962239" /></g><path
       style="font-weight:bold;font-size:4.21691px;font-family:Barlow;-inkscape-font-specification:'Barlow, Normal';fill:#795c30;stroke-width:0.999995;stroke-linejoin:bevel;stroke-dashoffset:1.57133;paint-order:fill markers stroke"
       d="m 551.32197,361.25548 h 0.47298 c 0.0423,0 0.0718,-0.0253 0.0802,-0.0632 l 0.27872,-1.09901 c 0.004,-0.0253 0.0253,-0.0211 0.0337,0 l 0.31674,1.10322 c 0.0127,0.0378 0.038,0.0589 0.0802,0.0589 h 0.47299 c 0.0423,0 0.0676,-0.0211 0.0802,-0.0589 l 0.60389,-2.02116 c 0.0127,-0.0463 -0.008,-0.08 -0.0591,-0.08 l -0.46454,-0.004 c -0.0423,0 -0.0718,0.0253 -0.0802,0.0631 l -0.32096,1.2506 c -0.004,0.0253 -0.0295,0.0253 -0.0338,0 l -0.32096,-1.2506 c -0.008,-0.0379 -0.038,-0.0631 -0.0802,-0.0631 h -0.41387 c -0.0423,0 -0.0718,0.0211 -0.0802,0.0631 l -0.31251,1.24639 c -0.004,0.0253 -0.0295,0.0211 -0.0337,0 l -0.29139,-1.24639 c -0.008,-0.0421 -0.038,-0.0631 -0.0802,-0.0631 h -0.46454 c -0.0507,0 -0.0718,0.0295 -0.0591,0.08 l 0.59545,2.02538 c 0.0127,0.0378 0.0381,0.0589 0.0802,0.0589 z m 3.50093,-2.19801 c -0.51099,0 -0.88685,0.25686 -0.92908,0.60634 -0.004,0.0337 0.0253,0.0547 0.0676,0.0589 l 0.46876,0.0589 c 0.0423,0.004 0.0676,-0.0127 0.0844,-0.0547 0.0381,-0.10105 0.15203,-0.16 0.32096,-0.16 0.22382,0 0.33784,0.11369 0.33784,0.29474 v 0.0885 c 0,0.0169 -0.0127,0.0253 -0.0253,0.0253 h -0.42654 c -0.57011,0 -0.8784,0.25685 -0.8784,0.68214 0,0.43371 0.30829,0.63162 0.72215,0.63162 0.25339,0 0.44765,-0.0716 0.57856,-0.21476 0.0169,-0.0169 0.0295,-0.0127 0.0295,0.008 v 0.10105 c 0,0.0463 0.0253,0.0716 0.0718,0.0716 h 0.45187 c 0.0465,0 0.0718,-0.0253 0.0718,-0.0716 v -1.40638 c 0,-0.40844 -0.38851,-0.72004 -0.94596,-0.72004 z m -0.0844,1.78956 c -0.17737,0 -0.29984,-0.0927 -0.29984,-0.24422 0,-0.17685 0.15625,-0.2737 0.40964,-0.2737 h 0.29984 c 0.0169,0 0.0253,0.0127 0.0253,0.0253 v 0.14739 c 0,0.20632 -0.19849,0.34527 -0.43497,0.34527 z m 1.51608,0.40845 h 0.45187 c 0.0465,0 0.0718,-0.0253 0.0718,-0.0716 v -0.5895 c 0,-0.0127 0.004,-0.0169 0.0127,-0.0294 l 0.26182,-0.33266 c 0.0127,-0.0127 0.0253,-0.0169 0.0338,0.004 l 0.40964,0.96426 c 0.0169,0.0378 0.0465,0.0547 0.0844,0.0547 h 0.47721 c 0.0549,0 0.076,-0.0379 0.0549,-0.0842 l -0.6208,-1.30954 c -0.004,-0.0127 -0.004,-0.0253 0.004,-0.0337 l 0.51944,-0.64845 c 0.038,-0.0505 0.0126,-0.0885 -0.0465,-0.0885 h -0.51099 c -0.0381,0 -0.0634,0.0169 -0.0887,0.0421 l -0.56167,0.64425 c -0.0127,0.0169 -0.0295,0.0127 -0.0295,-0.008 v -1.38944 c 0,-0.0463 -0.0253,-0.0716 -0.0718,-0.0716 h -0.45187 c -0.0465,0 -0.0718,0.0253 -0.0718,0.0716 v 2.80436 c 0,0.0463 0.0253,0.0716 0.0718,0.0716 z m 3.03217,-0.46739 c -0.23649,0 -0.40964,-0.0969 -0.46875,-0.2695 -0.0127,-0.0337 -0.0211,-0.0758 -0.0295,-0.13052 0,-0.0169 0.008,-0.0253 0.0253,-0.0253 h 1.29648 c 0.0465,0 0.0718,-0.0253 0.0718,-0.0716 -0.004,-0.10948 -0.0127,-0.21475 -0.0253,-0.30738 -0.0929,-0.56846 -0.4012,-0.93058 -0.97131,-0.93058 -0.47298,0 -0.83194,0.2779 -0.94597,0.69056 -0.0338,0.12211 -0.0465,0.25265 -0.0465,0.41265 0,0.13896 0.0169,0.26949 0.0507,0.3916 0.11401,0.44634 0.45608,0.7411 0.98819,0.7411 0.3463,0 0.65036,-0.14317 0.83196,-0.37055 0.0253,-0.0379 0.0253,-0.0674 -0.008,-0.10106 l -0.24071,-0.23159 c -0.0337,-0.0337 -0.0676,-0.0295 -0.10136,0.008 -0.0929,0.11369 -0.23648,0.18527 -0.42653,0.1937 z m -0.10979,-1.22112 c 0.19425,0 0.31672,0.10526 0.36741,0.26528 0.008,0.0253 0.0127,0.0505 0.0169,0.0884 0.004,0.0169 -0.004,0.0253 -0.0211,0.0253 h -0.71793 c -0.0169,0 -0.0253,-0.008 -0.0211,-0.0253 0.004,-0.0421 0.0169,-0.0758 0.0253,-0.10527 0.0465,-0.15159 0.1647,-0.24843 0.35052,-0.24843 z m 3.31511,0.10948 c -0.11402,-0.37055 -0.43075,-0.61898 -0.81505,-0.61898 -0.22383,0 -0.37585,0.0884 -0.48143,0.22738 -0.0127,0.0169 -0.0295,0.0127 -0.0295,-0.008 v -0.11368 c 0,-0.0463 -0.0253,-0.0716 -0.0718,-0.0716 h -0.45187 c -0.0465,0 -0.0718,0.0253 -0.0718,0.0716 v 2.80436 c 0,0.0463 0.0253,0.0716 0.0718,0.0716 h 0.45187 c 0.0465,0 0.0718,-0.0253 0.0718,-0.0716 v -0.86742 c 0,-0.0211 0.0169,-0.0294 0.0295,-0.0127 0.10558,0.13053 0.26183,0.20632 0.48143,0.20632 0.38853,0 0.68414,-0.23579 0.80661,-0.5895 0.0591,-0.1558 0.0802,-0.33686 0.0802,-0.52213 0,-0.17686 -0.0169,-0.34949 -0.0718,-0.50529 z m -0.65457,0.93478 c -0.0676,0.10527 -0.16471,0.16001 -0.29562,0.16001 -0.12247,0 -0.21537,-0.0589 -0.28294,-0.16422 -0.0591,-0.10526 -0.0887,-0.25265 -0.0887,-0.4337 0,-0.17265 0.0295,-0.31581 0.0844,-0.41687 0.0633,-0.11368 0.16048,-0.18107 0.28717,-0.18107 0.13937,0 0.24494,0.0674 0.30828,0.18107 0.0549,0.10106 0.0887,0.24422 0.0887,0.41266 0,0.18526 -0.038,0.33685 -0.10135,0.44212 z m 1.00087,1.48219 h 0.0295 c 0.73481,0 0.89107,-0.1937 1.08533,-0.75794 l 0.72215,-2.16433 c 0.0169,-0.0463 -0.008,-0.08 -0.0591,-0.08 h -0.48566 c -0.0423,0 -0.0718,0.0253 -0.0802,0.0631 l -0.3294,1.2506 c -0.004,0.0211 -0.0295,0.0211 -0.0337,0 l -0.3463,-1.2548 c -0.0127,-0.0379 -0.038,-0.0589 -0.0802,-0.0589 h -0.48565 c -0.0507,0 -0.076,0.0337 -0.0591,0.08 l 0.67991,2.06748 c 0.004,0.008 0.004,0.0211 0,0.0336 -0.0676,0.27792 -0.2027,0.33266 -0.53633,0.33266 h -0.0253 c -0.0169,0 -0.0253,0.0253 -0.0253,0.0716 v 0.34529 c 0,0.0463 0.0127,0.0716 0.0296,0.0716 z"
       id="text2-1"
       aria-label="wakepy" /><path
       style="fill:#2d4e4e;fill-opacity:1;fill-rule:nonzero;stroke:none;stroke-width:0.4;stroke-linejoin:bevel;stroke-dasharray:none;stroke-dashoffset:1.57133;stroke-opacity:1;paint-order:fill markers stroke"
       d="m 439.59351,371.70278 -3.97971,-8.54377 c 2.44863,1.42936 1.47204,0.52743 3.13452,1.74114 2.26364,1.65259 3.05383,6.71436 3.05383,6.71436 z"
       id="path13"
       sodipodi:nodetypes="ccscc" /></g><g
     inkscape:groupmode="layer"
     id="layer3"
     inkscape:label="light"
     style="display:inline"
     transform="translate(-335.43547,-221.11996)"><path
       style="display:inline;fill:#f0f0f0;fill-opacity:0.174655;stroke:none;stroke-width:1.1;stroke-dasharray:none;stroke-dashoffset:1.57133;stroke-opacity:1;paint-order:stroke markers fill"
       d="m 389.5615,312.84373 c -2.86471,-20.43013 -5.80803,-27.3985 -10.31761,-55.14263 0,0 3.2683,-1.14831 6.89252,-3.50464 4.07497,-2.64938 5.50322,-4.53902 5.50322,-4.53902 l 64.55763,62.90299 c -48.28722,0.38348 -32.4764,0.34308 -66.63576,0.2833 z"
       id="path10"
       inkscape:label="light"
       sodipodi:nodetypes="ccsccc" /></g></svg>
