<?xml version="1.0" encoding="UTF-8" standalone="no"?>
<!-- Created with Inkscape (http://www.inkscape.org/) -->

<svg
   width="1335.7275"
   height="418.71637"
   viewBox="0 0 353.41124 110.78536"
   version="1.1"
   id="svg1"
   xml:space="preserve"
   inkscape:version="1.3.2 (091e20ef0f, 2023-11-25)"
   sodipodi:docname="wakepy-banner.svg"
   inkscape:export-filename="wakepy-banner.png"
   inkscape:export-xdpi="96"
   inkscape:export-ydpi="96"
   xmlns:inkscape="http://www.inkscape.org/namespaces/inkscape"
   xmlns:sodipodi="http://sodipodi.sourceforge.net/DTD/sodipodi-0.dtd"
   xmlns:xlink="http://www.w3.org/1999/xlink"
   xmlns="http://www.w3.org/2000/svg"
   xmlns:svg="http://www.w3.org/2000/svg"><sodipodi:namedview
     id="namedview1"
     pagecolor="#ffffff"
     bordercolor="#000000"
     borderopacity="0.25"
     inkscape:showpageshadow="2"
     inkscape:pageopacity="0.0"
     inkscape:pagecheckerboard="0"
     inkscape:deskcolor="#d1d1d1"
     inkscape:document-units="mm"
     inkscape:zoom="0.70710678"
     inkscape:cx="396.6869"
     inkscape:cy="309.71277"
     inkscape:window-width="1600"
     inkscape:window-height="836"
     inkscape:window-x="0"
     inkscape:window-y="0"
     inkscape:window-maximized="1"
     inkscape:current-layer="layer4"
     showborder="true"
     showguides="false" /><defs
     id="defs1"><linearGradient
       id="linearGradient1"
       inkscape:collect="always"><stop
         style="stop-color:#122124;stop-opacity:1;"
         offset="0"
         id="stop1" /><stop
         style="stop-color:#21383d;stop-opacity:1;"
         offset="1"
         id="stop2" /></linearGradient><linearGradient
       inkscape:collect="always"
       xlink:href="#linearGradient1"
       id="linearGradient2"
       x1="337.29617"
       y1="290.74466"
       x2="343.33847"
       y2="321.53348"
       gradientUnits="userSpaceOnUse" /></defs><g
     inkscape:groupmode="layer"
     id="layer4"
     inkscape:label="sphere-bg"
     transform="translate(-174.58775,-216.12833)"
     style="display:inline"><rect
       style="fill:url(#linearGradient2);fill-opacity:1;fill-rule:nonzero;stroke:#284646;stroke-width:0.999999;stroke-linejoin:bevel;stroke-dashoffset:1.57133;stroke-opacity:1;paint-order:fill markers stroke"
       id="rect3"
       width="352.41125"
       height="109.78538"
       x="175.08775"
       y="216.62833"
       rx="5.000001"
       ry="5" /><path
       d="m 198.75366,292.00424 h 0.35611 c 0.0633,0 0.10288,-0.0396 0.10288,-0.10288 v -1.85972 c 0,-0.0158 0.008,-0.0396 0.0158,-0.0554 l 0.74389,-0.78346 c 0.0158,-0.0237 0.0396,-0.0158 0.0554,0.008 l 1.85972,2.73023 c 0.0316,0.0396 0.0712,0.0633 0.12662,0.0633 h 0.41151 c 0.0791,0 0.11079,-0.0554 0.0633,-0.12662 l -2.08131,-3.07052 c -0.008,-0.0158 -0.008,-0.0317 0.008,-0.0554 l 1.9072,-2.16045 c 0.0554,-0.0633 0.0317,-0.12662 -0.0554,-0.12662 h -0.39569 c -0.0475,0 -0.095,0.0158 -0.12662,0.0554 l -2.4849,2.70649 c -0.0238,0.0316 -0.0475,0.0158 -0.0475,-0.0158 v -2.64318 c 0,-0.0633 -0.0396,-0.10288 -0.10288,-0.10288 h -0.35611 c -0.0633,0 -0.10288,0.0396 -0.10288,0.10288 v 5.33384 c 0,0.0633 0.0396,0.10288 0.10288,0.10288 z m 6.06191,-0.41942 c -0.57771,0 -0.96548,-0.31655 -1.07627,-0.77555 -0.0316,-0.1187 -0.0475,-0.31655 -0.0475,-0.5777 0,-0.0237 0.0158,-0.0396 0.0396,-0.0396 h 2.53238 c 0.0633,0 0.10288,-0.0396 0.10288,-0.10288 0,-0.37194 -0.008,-0.5777 -0.0475,-0.79137 -0.14245,-0.83094 -0.64101,-1.36116 -1.58274,-1.36116 -0.78346,0 -1.35325,0.45109 -1.52735,1.13167 -0.0633,0.24532 -0.0712,0.51439 -0.0712,0.91799 0,0.44316 0.0396,0.79928 0.15036,1.09209 0.21367,0.60935 0.72806,0.98921 1.47986,0.98921 0.71224,0 1.22663,-0.3482 1.47195,-0.86259 0.0317,-0.0554 0.008,-0.10288 -0.0475,-0.13454 l -0.2295,-0.12662 c -0.0554,-0.0317 -0.11079,-0.008 -0.13453,0.0475 -0.18202,0.35611 -0.5223,0.58561 -1.01295,0.59353 z m -0.0791,-3.15758 c 0.54604,0 0.91007,0.31655 1.02087,0.77555 0.0237,0.11079 0.0396,0.29281 0.0475,0.50648 0,0.0237 -0.0158,0.0396 -0.0396,0.0396 h -2.03382 c -0.0237,0 -0.0396,-0.0158 -0.0396,-0.0396 0.008,-0.2295 0.0237,-0.41152 0.0633,-0.53814 0.10288,-0.43525 0.44317,-0.74389 0.9813,-0.74389 z m 4.30506,3.15758 c -0.5777,0 -0.96547,-0.31655 -1.07626,-0.77555 -0.0317,-0.1187 -0.0475,-0.31655 -0.0475,-0.5777 0,-0.0237 0.0158,-0.0396 0.0396,-0.0396 h 2.53239 c 0.0633,0 0.10288,-0.0396 0.10288,-0.10288 0,-0.37194 -0.008,-0.5777 -0.0475,-0.79137 -0.14244,-0.83094 -0.64101,-1.36116 -1.58274,-1.36116 -0.78345,0 -1.35324,0.45109 -1.52734,1.13167 -0.0633,0.24532 -0.0712,0.51439 -0.0712,0.91799 0,0.44316 0.0396,0.79928 0.15036,1.09209 0.21367,0.60935 0.72806,0.98921 1.47987,0.98921 0.71223,0 1.22662,-0.3482 1.47195,-0.86259 0.0317,-0.0554 0.008,-0.10288 -0.0475,-0.13454 l -0.2295,-0.12662 c -0.0554,-0.0317 -0.11079,-0.008 -0.13454,0.0475 -0.18201,0.35611 -0.5223,0.58561 -1.01295,0.59353 z m -0.0791,-3.15758 c 0.54605,0 0.91008,0.31655 1.02087,0.77555 0.0237,0.11079 0.0396,0.29281 0.0475,0.50648 0,0.0237 -0.0158,0.0396 -0.0396,0.0396 h -2.03382 c -0.0237,0 -0.0396,-0.0158 -0.0396,-0.0396 0.008,-0.2295 0.0237,-0.41152 0.0633,-0.53814 0.10288,-0.43525 0.44317,-0.74389 0.9813,-0.74389 z m 5.85615,0.56979 c -0.18993,-0.64101 -0.69641,-1.06044 -1.44821,-1.06044 -0.41942,0 -0.77554,0.17411 -1.00504,0.48274 -0.0237,0.0237 -0.0475,0.0158 -0.0475,-0.0158 v -0.30072 c 0,-0.0633 -0.0396,-0.10288 -0.10288,-0.10288 h -0.35612 c -0.0633,0 -0.10287,0.0396 -0.10287,0.10288 v 5.33384 c 0,0.0633 0.0396,0.10288 0.10287,0.10288 h 0.35612 c 0.0633,0 0.10288,-0.0396 0.10288,-0.10288 v -1.82806 c 0,-0.0317 0.0237,-0.0475 0.0475,-0.0158 0.2295,0.30072 0.58562,0.47482 1.00504,0.47482 0.76763,0 1.27411,-0.42734 1.46404,-1.08418 0.0791,-0.26906 0.095,-0.59352 0.095,-0.9813 0,-0.4036 -0.0237,-0.72806 -0.11079,-1.00504 z m -0.6331,2.00217 c -0.13453,0.34029 -0.45108,0.5777 -0.87842,0.5777 -0.41942,0 -0.70432,-0.24532 -0.83094,-0.59353 -0.095,-0.21367 -0.14244,-0.45108 -0.14244,-0.9813 0,-0.5223 0.0396,-0.75971 0.13453,-0.96547 0.12662,-0.35612 0.41151,-0.60936 0.84677,-0.60936 0.44316,0 0.78345,0.23742 0.91007,0.61727 0.095,0.21367 0.14245,0.44317 0.14245,0.95756 0,0.54605 -0.0633,0.78346 -0.18202,0.99713 z m 4.82738,-3.06261 c -0.81512,0 -1.40073,0.39569 -1.50361,0.97339 -0.008,0.0554 0.0317,0.0791 0.095,0.087 l 0.38777,0.0475 c 0.0633,0.008 0.10288,-0.0158 0.1187,-0.0791 0.0871,-0.33238 0.41152,-0.53814 0.91008,-0.53814 0.65684,0 0.9259,0.35612 0.9259,0.87051 v 0.29281 c 0,0.0237 -0.0158,0.0396 -0.0396,0.0396 h -0.91799 c -1.02878,0 -1.63022,0.49065 -1.63022,1.28202 0,0.83094 0.6331,1.1554 1.30576,1.1554 0.49857,0 0.94173,-0.15827 1.23454,-0.46691 0.0237,-0.0317 0.0475,-0.0158 0.0475,0.0158 v 0.28489 c 0,0.0633 0.0396,0.10288 0.10288,0.10288 h 0.35612 c 0.0633,0 0.10288,-0.0396 0.10288,-0.10288 v -2.63526 c 0,-0.78346 -0.53022,-1.32951 -1.49569,-1.32951 z m -0.22159,3.64823 c -0.48273,0 -0.87051,-0.22159 -0.87051,-0.70432 0,-0.5144 0.46691,-0.8072 1.15541,-0.8072 h 0.83093 c 0.0238,0 0.0396,0.0158 0.0396,0.0396 v 0.60935 c 0,0.55396 -0.56978,0.8626 -1.1554,0.8626 z m 5.77701,0.45899 c 0.89425,0 1.47195,-0.45108 1.47195,-1.13166 0,-0.78346 -0.76763,-0.99713 -1.44029,-1.18706 -0.53813,-0.15827 -0.96547,-0.30072 -0.96547,-0.6964 0,-0.37986 0.36403,-0.60936 0.89425,-0.60936 0.59352,0 0.94964,0.28489 0.94964,0.6331 v 0.0475 c 0,0.0317 0.0396,0.0554 0.10288,0.0554 h 0.32446 c 0.0633,0 0.10288,-0.0396 0.10288,-0.10288 0,-0.62519 -0.58562,-1.09209 -1.47195,-1.09209 -0.85468,0 -1.44821,0.42734 -1.44821,1.10792 0,0.7518 0.72806,0.9813 1.40864,1.17914 0.52231,0.15827 0.9813,0.27698 0.9813,0.70432 0,0.37194 -0.36403,0.65684 -0.91799,0.65684 -0.56979,0 -0.94964,-0.31655 -0.94964,-0.64893 v -0.0712 c 0,-0.0396 -0.0396,-0.0712 -0.10288,-0.0712 h -0.34029 c -0.0633,0 -0.10288,0.0396 -0.10288,0.10287 v 0.0712 c 0,0.5777 0.59353,1.05252 1.5036,1.05252 z m 2.0734,1.54317 h 0.0554 c 0.87843,0 1.11584,-0.22158 1.47195,-1.23453 l 1.45613,-4.23384 c 0.0237,-0.0712 -0.0158,-0.11871 -0.0871,-0.11871 h -0.37986 c -0.0554,0 -0.095,0.0237 -0.11079,0.0871 l -0.99713,3.10217 c -0.008,0.0396 -0.0396,0.0396 -0.0475,0 l -1.02087,-3.10217 c -0.0158,-0.0554 -0.0633,-0.0871 -0.11871,-0.0871 h -0.37194 c -0.0712,0 -0.11079,0.0475 -0.0871,0.11871 l 1.3295,3.86189 c 0.008,0.0237 0.008,0.0317 0,0.0475 -0.26907,0.88634 -0.44317,1.07627 -1.0367,1.07627 h -0.0554 c -0.0317,0 -0.0554,0.0396 -0.0554,0.10288 v 0.27698 c 0,0.0633 0.0237,0.10287 0.0554,0.10287 z m 4.89859,-1.54317 c 0.89425,0 1.47195,-0.45108 1.47195,-1.13166 0,-0.78346 -0.76763,-0.99713 -1.4403,-1.18706 -0.53813,-0.15827 -0.96547,-0.30072 -0.96547,-0.6964 0,-0.37986 0.36403,-0.60936 0.89425,-0.60936 0.59353,0 0.94964,0.28489 0.94964,0.6331 v 0.0475 c 0,0.0317 0.0396,0.0554 0.10288,0.0554 h 0.32446 c 0.0633,0 0.10288,-0.0396 0.10288,-0.10288 0,-0.62519 -0.58561,-1.09209 -1.47195,-1.09209 -0.85468,0 -1.44821,0.42734 -1.44821,1.10792 0,0.7518 0.72806,0.9813 1.40864,1.17914 0.52231,0.15827 0.9813,0.27698 0.9813,0.70432 0,0.37194 -0.36403,0.65684 -0.91799,0.65684 -0.56978,0 -0.94964,-0.31655 -0.94964,-0.64893 v -0.0712 c 0,-0.0396 -0.0396,-0.0712 -0.10288,-0.0712 h -0.34029 c -0.0633,0 -0.10288,0.0396 -0.10288,0.10287 v 0.0712 c 0,0.5777 0.59353,1.05252 1.50361,1.05252 z m 4.28924,-3.67987 v -0.26116 c 0,-0.0633 -0.0396,-0.10288 -0.10288,-0.10288 h -0.8626 c -0.0237,0 -0.0396,-0.0158 -0.0396,-0.0396 v -0.8863 c 0,-0.0633 -0.0396,-0.10288 -0.10288,-0.10288 h -0.34029 c -0.0633,0 -0.10288,0.0396 -0.10288,0.10288 v 0.88634 c 0,0.0237 -0.0158,0.0396 -0.0396,0.0396 h -0.45108 c -0.0633,0 -0.10288,0.0396 -0.10288,0.10288 v 0.26116 c 0,0.0633 0.0396,0.10287 0.10288,0.10287 h 0.45108 c 0.0237,0 0.0396,0.0158 0.0396,0.0396 v 2.48491 c 0,0.82302 0.46691,1.00504 1.1554,1.00504 h 0.26907 c 0.0712,-0.008 0.10288,-0.0475 0.10288,-0.11079 v -0.27698 c 0,-0.0633 -0.0396,-0.10288 -0.10288,-0.10288 h -0.1741 c -0.47483,0 -0.70432,-0.1741 -0.70432,-0.68849 v -2.31081 c 0,-0.0237 0.0158,-0.0396 0.0396,-0.0396 h 0.8626 c 0.0633,0 0.10288,-0.0396 0.10288,-0.10287 z m 2.52448,3.22088 c -0.57771,0 -0.96548,-0.31655 -1.07627,-0.77555 -0.0316,-0.1187 -0.0475,-0.31655 -0.0475,-0.5777 0,-0.0237 0.0158,-0.0396 0.0396,-0.0396 h 2.53238 c 0.0633,0 0.10288,-0.0396 0.10288,-0.10288 0,-0.37194 -0.008,-0.5777 -0.0475,-0.79137 -0.14245,-0.83094 -0.64101,-1.36116 -1.58274,-1.36116 -0.78346,0 -1.35325,0.45109 -1.52735,1.13167 -0.0633,0.24532 -0.0712,0.51439 -0.0712,0.91799 0,0.44316 0.0396,0.79928 0.15036,1.09209 0.21367,0.60935 0.72806,0.98921 1.47986,0.98921 0.71224,0 1.22663,-0.3482 1.47195,-0.86259 0.0317,-0.0554 0.008,-0.10288 -0.0475,-0.13454 l -0.2295,-0.12662 c -0.0554,-0.0317 -0.11079,-0.008 -0.13453,0.0475 -0.18201,0.35611 -0.5223,0.58561 -1.01295,0.59353 z m -0.0791,-3.15758 c 0.54604,0 0.91008,0.31655 1.02087,0.77555 0.0237,0.11079 0.0396,0.29281 0.0475,0.50648 0,0.0237 -0.0158,0.0396 -0.0396,0.0396 h -2.03382 c -0.0237,0 -0.0396,-0.0158 -0.0396,-0.0396 0.008,-0.2295 0.0237,-0.41152 0.0633,-0.53814 0.10288,-0.43525 0.44317,-0.74389 0.9813,-0.74389 z m 6.79788,-0.48273 c -0.51439,0 -0.97339,0.19784 -1.2108,0.64101 -0.0158,0.0237 -0.0317,0.0237 -0.0475,-0.008 -0.19784,-0.4036 -0.60144,-0.6331 -1.13957,-0.6331 -0.42734,0 -0.8072,0.14245 -1.04461,0.45108 -0.0238,0.0316 -0.0475,0.0158 -0.0475,-0.0158 v -0.27698 c 0,-0.0633 -0.0396,-0.10288 -0.10287,-0.10288 h -0.35612 c -0.0633,0 -0.10288,0.0396 -0.10288,0.10288 v 3.79858 c 0,0.0633 0.0396,0.10288 0.10288,0.10288 h 0.35612 c 0.0633,0 0.10287,-0.0396 0.10287,-0.10288 v -2.53238 c 0,-0.5777 0.36403,-0.93382 0.91799,-0.93382 0.54605,0 0.90217,0.36403 0.90217,0.94964 v 2.51656 c 0,0.0633 0.0396,0.10288 0.10288,0.10288 h 0.35611 c 0.0633,0 0.10288,-0.0396 0.10288,-0.10288 v -2.53238 c 0,-0.5777 0.37986,-0.93382 0.93382,-0.93382 0.53813,0 0.90216,0.36403 0.90216,0.94964 v 2.51656 c 0,0.0633 0.0396,0.10288 0.10288,0.10288 h 0.3482 c 0.0633,0 0.10288,-0.0396 0.10288,-0.10288 v -2.62735 c 0,-0.83094 -0.49856,-1.3295 -1.28202,-1.3295 z m 5.46046,-0.008 c -0.81511,0 -1.40072,0.39569 -1.5036,0.97339 -0.008,0.0554 0.0317,0.0791 0.095,0.087 l 0.38778,0.0475 c 0.0633,0.008 0.10287,-0.0158 0.1187,-0.0791 0.087,-0.33238 0.41151,-0.53814 0.91008,-0.53814 0.65684,0 0.9259,0.35612 0.9259,0.87051 v 0.29281 c 0,0.0237 -0.0158,0.0396 -0.0396,0.0396 h -0.91799 c -1.02878,0 -1.63022,0.49065 -1.63022,1.28202 0,0.83094 0.6331,1.1554 1.30576,1.1554 0.49856,0 0.94173,-0.15827 1.23454,-0.46691 0.0237,-0.0317 0.0475,-0.0158 0.0475,0.0158 v 0.28489 c 0,0.0633 0.0396,0.10288 0.10288,0.10288 h 0.35612 c 0.0633,0 0.10287,-0.0396 0.10287,-0.10288 v -2.63526 c 0,-0.78346 -0.53021,-1.32951 -1.49569,-1.32951 z m -0.22158,3.64823 c -0.48274,0 -0.87051,-0.22159 -0.87051,-0.70432 0,-0.5144 0.46691,-0.8072 1.1554,-0.8072 h 0.83094 c 0.0237,0 0.0396,0.0158 0.0396,0.0396 v 0.60935 c 0,0.55396 -0.56979,0.8626 -1.1554,0.8626 z m 3.67987,0.41942 h 0.39568 c 0.0554,0 0.095,-0.0237 0.11079,-0.087 l 0.82303,-2.92016 c 0.008,-0.0317 0.0396,-0.0317 0.0475,0 l 0.85468,2.92016 c 0.0158,0.0633 0.0554,0.087 0.11079,0.087 h 0.38778 c 0.0554,0 0.095,-0.0237 0.11079,-0.087 l 1.12374,-3.79067 c 0.0238,-0.0712 -0.0158,-0.1187 -0.0871,-0.1187 l -0.36403,-0.008 c -0.0554,0 -0.10288,0.0237 -0.1187,0.0871 l -0.84677,3.08634 c -0.008,0.0317 -0.0396,0.0317 -0.0475,0 l -0.8626,-3.08634 c -0.0158,-0.0633 -0.0554,-0.0871 -0.11079,-0.0871 h -0.3482 c -0.0554,0 -0.095,0.0237 -0.11079,0.0871 l -0.84677,3.08634 c -0.008,0.0317 -0.0396,0.0317 -0.0475,0 l -0.82303,-3.08634 c -0.0158,-0.0633 -0.0554,-0.0871 -0.11079,-0.0871 h -0.37194 c -0.0712,0 -0.1108,0.0475 -0.0871,0.11871 l 1.10792,3.79858 c 0.0158,0.0633 0.0554,0.087 0.1108,0.087 z m 6.15687,-4.06765 c -0.81511,0 -1.40072,0.39569 -1.5036,0.97339 -0.008,0.0554 0.0316,0.0791 0.095,0.087 l 0.38777,0.0475 c 0.0633,0.008 0.10288,-0.0158 0.11871,-0.0791 0.0871,-0.33238 0.41151,-0.53814 0.91008,-0.53814 0.65683,0 0.9259,0.35612 0.9259,0.87051 v 0.29281 c 0,0.0237 -0.0158,0.0396 -0.0396,0.0396 h -0.91799 c -1.02878,0 -1.63022,0.49065 -1.63022,1.28202 0,0.83094 0.63309,1.1554 1.30576,1.1554 0.49856,0 0.94173,-0.15827 1.23454,-0.46691 0.0237,-0.0317 0.0475,-0.0158 0.0475,0.0158 v 0.28489 c 0,0.0633 0.0396,0.10288 0.10288,0.10288 h 0.35611 c 0.0633,0 0.10288,-0.0396 0.10288,-0.10288 v -2.63526 c 0,-0.78346 -0.53022,-1.32951 -1.49569,-1.32951 z m -0.22158,3.64823 c -0.48274,0 -0.87051,-0.22159 -0.87051,-0.70432 0,-0.5144 0.46691,-0.8072 1.1554,-0.8072 h 0.83094 c 0.0237,0 0.0396,0.0158 0.0396,0.0396 v 0.60935 c 0,0.55396 -0.56979,0.8626 -1.1554,0.8626 z m 2.98346,0.41942 h 0.35612 c 0.0633,0 0.10288,-0.0396 0.10288,-0.10288 v -1.31367 c 0,-0.0158 0.008,-0.0396 0.0158,-0.0554 l 0.86259,-0.90216 c 0.0158,-0.0158 0.0475,-0.0158 0.0554,0.008 l 1.00504,2.28706 c 0.0237,0.0475 0.0633,0.0791 0.1187,0.0791 h 0.37195 c 0.0791,0 0.11079,-0.0475 0.0791,-0.1187 l -1.18706,-2.61944 c -0.008,-0.0158 -0.008,-0.0396 0.008,-0.0554 l 0.9813,-1.08418 c 0.0554,-0.0633 0.0237,-0.12662 -0.0633,-0.12662 h -0.41942 c -0.0475,0 -0.095,0.0158 -0.12662,0.0554 l -1.65397,1.7331 c -0.0237,0.0317 -0.0475,0.008 -0.0475,-0.0237 v -3.19714 c 0,-0.0633 -0.0396,-0.10288 -0.10288,-0.10288 h -0.35612 c -0.0633,0 -0.10287,0.0396 -0.10287,0.10288 v 5.33384 c 0,0.0633 0.0396,0.10288 0.10287,0.10288 z m 5.27053,-0.41942 c -0.5777,0 -0.96547,-0.31655 -1.07626,-0.77555 -0.0317,-0.1187 -0.0475,-0.31655 -0.0475,-0.5777 0,-0.0237 0.0158,-0.0396 0.0396,-0.0396 h 2.53238 c 0.0633,0 0.10288,-0.0396 0.10288,-0.10288 0,-0.37194 -0.008,-0.5777 -0.0475,-0.79137 -0.14245,-0.83094 -0.64101,-1.36116 -1.58274,-1.36116 -0.78346,0 -1.35325,0.45109 -1.52735,1.13167 -0.0633,0.24532 -0.0712,0.51439 -0.0712,0.91799 0,0.44316 0.0396,0.79928 0.15036,1.09209 0.21367,0.60935 0.72806,0.98921 1.47986,0.98921 0.71224,0 1.22663,-0.3482 1.47195,-0.86259 0.0317,-0.0554 0.008,-0.10288 -0.0475,-0.13454 l -0.2295,-0.12662 c -0.0554,-0.0317 -0.11079,-0.008 -0.13453,0.0475 -0.18202,0.35611 -0.52231,0.58561 -1.01296,0.59353 z m -0.0791,-3.15758 c 0.54604,0 0.91007,0.31655 1.02087,0.77555 0.0237,0.11079 0.0396,0.29281 0.0475,0.50648 0,0.0237 -0.0158,0.0396 -0.0396,0.0396 h -2.03382 c -0.0238,0 -0.0396,-0.0158 -0.0396,-0.0396 0.008,-0.2295 0.0237,-0.41152 0.0633,-0.53814 0.10288,-0.43525 0.44316,-0.74389 0.9813,-0.74389 z"
       id="text7"
       style="font-size:7.91371px;font-family:Barlow;-inkscape-font-specification:'Barlow, Normal';fill:#8198a2;fill-opacity:1;stroke-linejoin:bevel;stroke-dashoffset:1.57133;paint-order:fill markers stroke"
       aria-label="Keep a system awake" /></g><g
     inkscape:label="figure"
     inkscape:groupmode="layer"
     id="layer1"
     transform="translate(-240.92707,-275.75361)"
     style="display:inline"><path
       style="fill:#ffffff;fill-opacity:1;stroke:#949494;stroke-width:0.399999;stroke-dasharray:none;stroke-dashoffset:1.57133;stroke-opacity:0.384233;paint-order:stroke markers fill"
       d="M 397.41974,372.24501 H 584.64532"
       id="path2" /><path
       style="fill:#a2a2a2;fill-opacity:1;stroke:#737373;stroke-width:2;stroke-dasharray:none;stroke-dashoffset:1.57133;stroke-opacity:1;paint-order:stroke markers fill"
       d="m 460.21896,366.91279 c 0,0 0.0965,-40.17723 0,-43.40707 -0.0965,-3.22985 2.25887,-5.60032 4.9725,-5.54957 2.71363,0.0508 66.80495,0.0387 69.61495,0 2.81001,-0.0387 5.08324,2.09411 4.9725,5.4429 -0.11073,3.34879 0,43.39073 0,43.39073"
       id="path4"
       sodipodi:nodetypes="czzzzc" /><path
       style="fill:#64c4ec;fill-opacity:1;stroke:#737373;stroke-width:1;stroke-dasharray:none;stroke-dashoffset:1.57133;stroke-opacity:1;paint-order:stroke markers fill"
       d="m 463.82111,367.0114 v -44.47211 h 72.35565 v 3.54814 40.64052"
       id="path5"
       sodipodi:nodetypes="ccccc" /><path
       style="fill:#284646;fill-opacity:1;stroke:#0e2f2f;stroke-width:2;stroke-dasharray:none;stroke-dashoffset:1.57133;stroke-opacity:1;paint-order:stroke markers fill"
       d="m 429.80844,363.7622 c -1.09964,-2.1059 -9.38459,-31.73686 -9.38459,-31.73686 l 20.18875,-22.22744 -0.76374,-0.99646 -20.80906,22.87263 9.62872,32.51811"
       id="path8"
       sodipodi:nodetypes="cccccc" /><g
       id="g25"
       transform="rotate(7.6683353,-1258.2885,2601.959)"
       style="fill:#284646;fill-opacity:1;stroke:#0e2f2f;stroke-opacity:1"><path
         style="fill:#284646;fill-opacity:1;stroke:#0e2f2f;stroke-width:2;stroke-linecap:round;stroke-dasharray:none;stroke-dashoffset:1.57133;stroke-opacity:1;paint-order:stroke markers fill"
         d="m 114.59695,93.59314 c 0,0 -0.67151,-1.038319 -0.37905,-1.438931 1.04592,-1.432705 2.80035,-2.945294 3.90951,-3.572972 0.36589,-0.207057 1.21393,0.342164 1.21393,0.342164"
         id="path12"
         sodipodi:nodetypes="cssc" /><path
         style="fill:#284646;fill-opacity:1;stroke:#0e2f2f;stroke-width:2;stroke-dasharray:none;stroke-dashoffset:1.57133;stroke-opacity:1;paint-order:stroke markers fill"
         d="m 124.68216,109.49373 -5.28041,-7.25282 c 0,0 -2.52982,-3.389607 -5.28041,-7.252817 -0.29501,-0.414342 3.46722,-3.338482 3.46722,-3.338482 0,0 2.66195,-3.056568 4.0385,-2.23241 3.76311,2.253025 6.82008,4.866944 6.82008,4.866944 l 7.39137,5.973015 c 0,0 -1.57752,2.84325 -6.02258,6.16394 -2.7494,2.05395 -5.09954,3.29423 -4.99045,3.22273 l -0.0841,-0.0977 -0.0841,-0.0977"
         id="path9"
         sodipodi:nodetypes="ccscsccsccc" /></g><g
       id="g26"
       inkscape:transform-center-x="2.7222863"
       inkscape:transform-center-y="-0.10724712"
       transform="translate(320.61392,211.59391)"
       style="fill:#284646;fill-opacity:1;stroke:#0e2f2f;stroke-opacity:1"><circle
         style="fill:#284646;fill-opacity:1;stroke:#0e2f2f;stroke-width:1.99999;stroke-dasharray:none;stroke-dashoffset:1.57133;stroke-opacity:1;paint-order:stroke markers fill"
         id="path11"
         cx="99.206589"
         cy="120.73509"
         r="2.3573182" /><circle
         style="fill:#284646;fill-opacity:1;stroke:#0e2f2f;stroke-width:2;stroke-dasharray:none;stroke-dashoffset:1.57133;stroke-opacity:1;paint-order:stroke markers fill"
         id="path11-4"
         cx="99.203156"
         cy="120.70263"
         r="0.81700456" /></g><path
       id="path7"
       style="fill:#284646;fill-opacity:1;stroke:#0e2f2f;stroke-width:2;stroke-dasharray:none;stroke-dashoffset:1.57133;stroke-opacity:1;paint-order:stroke markers fill"
       d="m 433.00997,362.71311 a 8.4514894,8.4514894 0 0 0 -8.45116,8.45117 8.4514894,8.4514894 0 0 0 0.0413,0.58239 h 16.81965 a 8.4514894,8.4514894 0 0 0 0.0419,-0.58239 8.4514894,8.4514894 0 0 0 -8.45168,-8.45117 z" /><ellipse
       style="fill:#737373;fill-opacity:1;stroke:#737373;stroke-width:0.999993;stroke-linecap:butt;stroke-linejoin:bevel;stroke-dasharray:none;stroke-dashoffset:1.57133;stroke-opacity:1;paint-order:fill markers stroke"
       id="path21"
       cx="499.91721"
       cy="319.86172"
       rx="0.50000304"
       ry="0.50000352" /><path
       id="rect2"
       style="fill:#c2c2c2;fill-opacity:1;stroke:#737373;stroke-width:2;stroke-dasharray:none;stroke-dashoffset:1.57133;paint-order:stroke markers fill"
       d="m 452.08368,367.18369 c -0.63958,-0.001 -0.071,1.52593 0.1588,2.06356 0.73073,1.70987 1.38966,1.92244 1.56436,1.92598 7.59586,-0.003 15.1917,-0.0112 22.78757,-0.016 22.90628,0.019 45.81285,0.0409 68.71913,0.0486 0.1747,-0.004 0.83362,-0.21663 1.56436,-1.9265 0.2617,-0.61236 0.90705,-2.19913 -0.126,-2.20527 -3.12274,0.0391 -87.60595,0.12553 -94.66822,0.10963 z"
       sodipodi:nodetypes="sscccscs" /><path
       style="fill:#737373;fill-opacity:0.0862745;stroke:#737373;stroke-width:1;stroke-linecap:round;stroke-linejoin:round;stroke-dasharray:none;stroke-dashoffset:1.57133;stroke-opacity:1;paint-order:stroke markers fill"
       d="m 493.97813,366.77406 0.84834,1.74335 h 10.50098 l 0.69469,-1.13024 0.46951,-0.7486"
       id="path3"
       sodipodi:nodetypes="ccccc" /><g
       id="g27"
       transform="translate(316.44822,211.6474)"><path
         style="fill:#af8445;fill-opacity:1;stroke:#795c30;stroke-width:2.00001;stroke-dasharray:none;stroke-dashoffset:1.57133;stroke-opacity:1;paint-order:stroke markers fill"
         d="m 235.97981,159.82361 -2.53497,-21.66351 15.86887,0.0571 -2.63567,21.5785 z"
         id="path14"
         sodipodi:nodetypes="ccccc" /><path
         style="fill:#caa670;fill-opacity:1;stroke:#665843;stroke-width:2;stroke-dasharray:none;stroke-dashoffset:1.57133;stroke-opacity:1;paint-order:stroke markers fill"
         d="m 231.60054,135.88488 0.0498,2.52005 18.97361,0.0719 0.0479,-2.50189 z"
         id="path15"
         sodipodi:nodetypes="ccccc" /><path
         style="fill:#c49c60;fill-opacity:1;stroke:#665843;stroke-width:2;stroke-dasharray:none;stroke-dashoffset:1.57133;stroke-opacity:1;paint-order:stroke markers fill"
         d="m 234.13826,135.18191 -0.0621,-2.04822 14.08634,0.062 0.0202,2.03935"
         id="path16"
         sodipodi:nodetypes="cccc" /><path
         style="fill:#caa670;fill-opacity:1;stroke:none;stroke-width:1;stroke-linecap:butt;stroke-linejoin:bevel;stroke-dasharray:none;stroke-dashoffset:1.57133;stroke-opacity:1;paint-order:fill markers stroke"
         d="m 235.988,159.93221 -2.47253,-20.50028 13.14427,0.0453 -0.15889,4.23481 -1.06996,9.41195 -0.63635,6.95168 z"
         id="path22"
         sodipodi:nodetypes="ccccccc" /><path
         style="fill:#98743c;fill-opacity:1;stroke:#795c30;stroke-width:2;stroke-linecap:round;stroke-linejoin:round;stroke-dasharray:none;stroke-dashoffset:1.57133;stroke-opacity:1;paint-order:stroke markers fill"
         d="m 234.41543,152.60591 h 13.92213 l 1.04671,-8.05778 c -4.49903,0.0219 -12.35831,-0.005 -16.37641,-0.0521 z"
         id="path17"
         sodipodi:nodetypes="ccccc" /><path
         style="fill:#c1934e;fill-opacity:1;stroke:none;stroke-width:1;stroke-linecap:butt;stroke-linejoin:bevel;stroke-dasharray:none;stroke-dashoffset:1.57133;stroke-opacity:1;paint-order:fill markers stroke"
         d="m 246.14269,152.6197 2.24457,0.0623 -13.95898,0.0258 -1.45908,-8.29523 13.6567,0.29246 z"
         id="path23"
         sodipodi:nodetypes="cccccc" /><path
         style="fill:#dfcaac;fill-opacity:1;stroke:none;stroke-width:1;stroke-linecap:butt;stroke-linejoin:bevel;stroke-dasharray:none;stroke-dashoffset:1.57133;stroke-opacity:1;paint-order:fill markers stroke"
         d="m 246.70125,135.19855 -12.56962,-0.0425 -0.12469,-1.95804 12.73313,-0.006 z"
         id="path24"
         sodipodi:nodetypes="ccccc" /><path
         style="fill:#dfcaac;fill-opacity:1;stroke:none;stroke-width:1;stroke-linecap:butt;stroke-linejoin:bevel;stroke-dasharray:none;stroke-dashoffset:1.57133;stroke-opacity:1;paint-order:fill markers stroke"
         d="m 246.79094,138.47987 -15.17603,0.0591 0.0132,-2.60815 15.12409,0.0834 z"
         id="path24-3"
         sodipodi:nodetypes="ccccc" /></g><g
       id="g1"
       transform="matrix(1.0192438,0,0,0.81922561,382.553,198.52628)"
       style="stroke-width:1.09435"><rect
         style="fill:#304148;fill-opacity:1;stroke:none;stroke-width:1.09435;stroke-linecap:butt;stroke-linejoin:bevel;stroke-dasharray:none;stroke-dashoffset:1.57133;stroke-opacity:1;paint-order:fill markers stroke"
         id="rect28-4"
         width="62.745731"
         height="11.165915"
         x="82.986816"
         y="172.38208"
         ry="2.44133"
         rx="1.962239" /><rect
         style="fill:#27c93f;fill-opacity:1;stroke:none;stroke-width:1.09435;stroke-linecap:butt;stroke-linejoin:bevel;stroke-dasharray:none;stroke-dashoffset:1.57133;stroke-opacity:1;paint-order:fill markers stroke"
         id="rect28-4-4"
         width="43.613049"
         height="7.3676963"
         x="84.63224"
         y="174.24046"
         ry="2.44133"
         rx="1.962239" /></g><path
       style="font-size:63.7838px;font-family:Barlow;-inkscape-font-specification:'Barlow, Normal';fill:#c7c7c7;fill-opacity:1;stroke:none;stroke-width:0.999998;stroke-linejoin:bevel;stroke-dashoffset:1.57133;stroke-opacity:1;paint-order:fill markers stroke"
       d="m 269.15515,342.3821 h 1.69128 c 0.23679,0 0.40591,-0.10044 0.47356,-0.36828 l 3.51784,-12.35465 c 0.0339,-0.13393 0.16914,-0.13393 0.20296,0 l 3.65316,12.35465 c 0.0676,0.26785 0.23678,0.36828 0.47355,0.36828 h 1.65744 c 0.23679,0 0.40592,-0.10044 0.47357,-0.36828 l 4.80322,-16.0376 c 0.10148,-0.30134 -0.0676,-0.50222 -0.37207,-0.50222 l -1.556,-0.0335 c -0.23676,0 -0.43972,0.10045 -0.50737,0.36829 l -3.61933,13.05776 c -0.0339,0.13393 -0.16912,0.13393 -0.20296,0 l -3.68697,-13.05776 c -0.0676,-0.26784 -0.23678,-0.36827 -0.47355,-0.36827 h -1.48832 c -0.23679,0 -0.40591,0.10044 -0.47355,0.36827 l -3.61933,13.05776 c -0.0339,0.13393 -0.16914,0.13393 -0.20295,0 l -3.51786,-13.05776 c -0.0676,-0.26784 -0.23678,-0.36827 -0.47356,-0.36827 h -1.58979 c -0.30443,0 -0.47357,0.20088 -0.3721,0.50221 l 4.73557,16.07107 c 0.0676,0.26785 0.23679,0.3683 0.47356,0.3683 z m 26.31626,-17.20943 c -3.48402,0 -5.98711,1.67406 -6.42683,4.11821 -0.0339,0.23436 0.13529,0.33481 0.4059,0.36829 l 1.65745,0.20089 c 0.2706,0.0335 0.43973,-0.067 0.50738,-0.33482 0.37208,-1.40621 1.75893,-2.27672 3.88995,-2.27672 2.8075,0 3.95757,1.50666 3.95757,3.68295 v 1.23882 c 0,0.10044 -0.0677,0.1674 -0.16914,0.1674 h -3.92375 c -4.39731,0 -6.96804,2.07583 -6.96804,5.42398 0,3.51555 2.70603,4.88829 5.58119,4.88829 2.13101,0 4.02524,-0.66963 5.27679,-1.9754 0.10148,-0.13393 0.20295,-0.067 0.20295,0.067 v 1.20533 c 0,0.26785 0.16911,0.43525 0.43972,0.43525 h 1.52215 c 0.27061,0 0.43973,-0.1674 0.43973,-0.43525 v -11.14934 c 0,-3.31465 -2.26629,-5.62488 -6.39302,-5.62488 z m -0.9471,15.43492 c -2.06337,0 -3.72081,-0.93748 -3.72081,-2.97984 0,-2.17629 1.9957,-3.41511 4.93852,-3.41511 h 3.55167 c 0.10149,0 0.16914,0.067 0.16914,0.1674 v 2.57808 c 0,2.34369 -2.43543,3.64947 -4.93852,3.64947 z m 12.7522,1.77451 h 1.52214 c 0.27059,0 0.43973,-0.16741 0.43973,-0.43525 v -5.55791 c 0,-0.067 0.0339,-0.16741 0.0677,-0.23439 l 3.68698,-3.81686 c 0.0676,-0.067 0.20296,-0.067 0.23679,0.0335 l 4.29582,9.67613 c 0.10148,0.20089 0.27061,0.33482 0.5074,0.33482 h 1.58979 c 0.33826,0 0.47355,-0.20089 0.33826,-0.50223 l -5.07383,-11.08234 c -0.0339,-0.067 -0.0339,-0.16741 0.0339,-0.23436 l 4.19436,-4.58696 c 0.23678,-0.26786 0.10149,-0.5357 -0.2706,-0.5357 h -1.79275 c -0.20294,0 -0.4059,0.067 -0.54122,0.23438 l -7.06951,7.33242 c -0.10149,0.13391 -0.20296,0.0335 -0.20296,-0.10044 v -13.52649 c 0,-0.26786 -0.16912,-0.43526 -0.43973,-0.43526 h -1.52214 c -0.27061,0 -0.43973,0.1674 -0.43973,0.43526 v 22.56646 c 0,0.26785 0.16912,0.43525 0.43973,0.43525 z m 22.52777,-1.77451 c -2.46926,0 -4.1267,-1.33926 -4.60026,-3.28118 -0.1353,-0.50222 -0.20296,-1.33925 -0.20296,-2.44414 0,-0.10044 0.0676,-0.1674 0.16914,-0.1674 h 10.82416 c 0.27059,0 0.43971,-0.16741 0.43971,-0.43527 0,-1.57362 -0.0339,-2.44414 -0.20295,-3.34813 -0.60886,-3.51555 -2.73986,-5.7588 -6.7651,-5.7588 -3.34872,0 -5.78414,1.90843 -6.5283,4.78783 -0.27061,1.03793 -0.30444,2.1763 -0.30444,3.88385 0,1.87497 0.16913,3.38161 0.64268,4.62043 0.9133,2.57806 3.11195,4.18518 6.32537,4.18518 3.04428,0 5.24295,-1.47318 6.29154,-3.64947 0.13531,-0.23437 0.0339,-0.43527 -0.20294,-0.56919 l -0.98095,-0.53569 c -0.23678,-0.13394 -0.47356,-0.0335 -0.57504,0.20088 -0.77798,1.50666 -2.23248,2.47762 -4.32966,2.5111 z m -0.33826,-13.35907 c 2.33396,0 3.88994,1.33924 4.3635,3.28118 0.10148,0.46873 0.16912,1.23879 0.20295,2.1428 0,0.10044 -0.0677,0.1674 -0.16912,0.1674 h -8.69315 c -0.10149,0 -0.16914,-0.067 -0.16914,-0.1674 0.0339,-0.97096 0.10148,-1.74103 0.27061,-2.27674 0.43973,-1.84148 1.89423,-3.14724 4.19435,-3.14724 z m 25.03088,2.41065 c -0.81181,-2.71199 -2.97665,-4.4865 -6.19007,-4.4865 -1.79274,0 -3.31489,0.73659 -4.29583,2.04237 -0.10148,0.10044 -0.20296,0.067 -0.20296,-0.067 v -1.27229 c 0,-0.26785 -0.16912,-0.43525 -0.43973,-0.43525 h -1.52214 c -0.27059,0 -0.43973,0.1674 -0.43973,0.43525 v 22.56646 c 0,0.26786 0.16914,0.43526 0.43973,0.43526 h 1.52214 c 0.27061,0 0.43973,-0.1674 0.43973,-0.43526 v -7.73419 c 0,-0.13393 0.10149,-0.20089 0.20296,-0.067 0.98094,1.2723 2.50309,2.00889 4.29583,2.00889 3.28108,0 5.44591,-1.808 6.25772,-4.58695 0.33825,-1.13837 0.4059,-2.51111 0.4059,-4.15171 0,-1.70754 -0.10148,-3.08028 -0.47355,-4.25212 z m -2.70604,8.4708 c -0.57504,1.43969 -1.92805,2.44414 -3.75462,2.44414 -1.79276,0 -3.01047,-1.03793 -3.55169,-2.5111 -0.4059,-0.90399 -0.60885,-1.90846 -0.60885,-4.1517 0,-2.20977 0.16912,-3.21422 0.57503,-4.08473 0.54121,-1.50665 1.75893,-2.57806 3.61933,-2.57806 1.89423,0 3.34872,1.00443 3.88993,2.61154 0.4059,0.90399 0.60886,1.87496 0.60886,4.05125 0,2.31022 -0.27061,3.31465 -0.77799,4.21866 z m 6.96804,10.94843 h 0.23679 c 3.75462,0 4.76939,-0.93749 6.29154,-5.22312 l 6.22387,-17.91254 c 0.10148,-0.30133 -0.0676,-0.50221 -0.37208,-0.50221 h -1.62361 c -0.23678,0 -0.40591,0.10044 -0.47357,0.36829 l -4.262,13.1247 c -0.0339,0.16741 -0.16913,0.16741 -0.20295,0 l -4.36349,-13.1247 c -0.0676,-0.23438 -0.27061,-0.36829 -0.50738,-0.36829 h -1.58979 c -0.30444,0 -0.47357,0.20088 -0.37208,0.50221 l 5.68267,16.33893 c 0.0339,0.10044 0.0339,0.13392 0,0.2009 -1.15006,3.7499 -1.89424,4.55345 -4.43113,4.55345 h -0.23679 c -0.1353,0 -0.23679,0.1674 -0.23679,0.43525 v 1.17187 c 0,0.26784 0.10149,0.43526 0.23679,0.43526 z"
       id="text2"
       aria-label="wakepy" /><path
       style="font-weight:bold;font-size:4.21691px;font-family:Barlow;-inkscape-font-specification:'Barlow, Normal';fill:#795c30;stroke-width:0.999995;stroke-linejoin:bevel;stroke-dashoffset:1.57133;paint-order:fill markers stroke"
       d="m 551.32197,361.25548 h 0.47298 c 0.0423,0 0.0718,-0.0253 0.0802,-0.0632 l 0.27872,-1.09901 c 0.004,-0.0253 0.0253,-0.0211 0.0337,0 l 0.31674,1.10322 c 0.0127,0.0378 0.038,0.0589 0.0802,0.0589 h 0.47299 c 0.0423,0 0.0676,-0.0211 0.0802,-0.0589 l 0.60389,-2.02116 c 0.0127,-0.0463 -0.008,-0.08 -0.0591,-0.08 l -0.46454,-0.004 c -0.0423,0 -0.0718,0.0253 -0.0802,0.0631 l -0.32096,1.2506 c -0.004,0.0253 -0.0295,0.0253 -0.0338,0 l -0.32096,-1.2506 c -0.008,-0.0379 -0.038,-0.0631 -0.0802,-0.0631 h -0.41387 c -0.0423,0 -0.0718,0.0211 -0.0802,0.0631 l -0.31251,1.24639 c -0.004,0.0253 -0.0295,0.0211 -0.0337,0 l -0.29139,-1.24639 c -0.008,-0.0421 -0.038,-0.0631 -0.0802,-0.0631 h -0.46454 c -0.0507,0 -0.0718,0.0295 -0.0591,0.08 l 0.59545,2.02538 c 0.0127,0.0378 0.0381,0.0589 0.0802,0.0589 z m 3.50093,-2.19801 c -0.51099,0 -0.88685,0.25686 -0.92908,0.60634 -0.004,0.0337 0.0253,0.0547 0.0676,0.0589 l 0.46876,0.0589 c 0.0423,0.004 0.0676,-0.0127 0.0844,-0.0547 0.0381,-0.10105 0.15203,-0.16 0.32096,-0.16 0.22382,0 0.33784,0.11369 0.33784,0.29474 v 0.0885 c 0,0.0169 -0.0127,0.0253 -0.0253,0.0253 h -0.42654 c -0.57011,0 -0.8784,0.25685 -0.8784,0.68214 0,0.43371 0.30829,0.63162 0.72215,0.63162 0.25339,0 0.44765,-0.0716 0.57856,-0.21476 0.0169,-0.0169 0.0295,-0.0127 0.0295,0.008 v 0.10105 c 0,0.0463 0.0253,0.0716 0.0718,0.0716 h 0.45187 c 0.0465,0 0.0718,-0.0253 0.0718,-0.0716 v -1.40638 c 0,-0.40844 -0.38851,-0.72004 -0.94596,-0.72004 z m -0.0844,1.78956 c -0.17737,0 -0.29984,-0.0927 -0.29984,-0.24422 0,-0.17685 0.15625,-0.2737 0.40964,-0.2737 h 0.29984 c 0.0169,0 0.0253,0.0127 0.0253,0.0253 v 0.14739 c 0,0.20632 -0.19849,0.34527 -0.43497,0.34527 z m 1.51608,0.40845 h 0.45187 c 0.0465,0 0.0718,-0.0253 0.0718,-0.0716 v -0.5895 c 0,-0.0127 0.004,-0.0169 0.0127,-0.0294 l 0.26182,-0.33266 c 0.0127,-0.0127 0.0253,-0.0169 0.0338,0.004 l 0.40964,0.96426 c 0.0169,0.0378 0.0465,0.0547 0.0844,0.0547 h 0.47721 c 0.0549,0 0.076,-0.0379 0.0549,-0.0842 l -0.6208,-1.30954 c -0.004,-0.0127 -0.004,-0.0253 0.004,-0.0337 l 0.51944,-0.64845 c 0.038,-0.0505 0.0126,-0.0885 -0.0465,-0.0885 h -0.51099 c -0.0381,0 -0.0634,0.0169 -0.0887,0.0421 l -0.56167,0.64425 c -0.0127,0.0169 -0.0295,0.0127 -0.0295,-0.008 v -1.38944 c 0,-0.0463 -0.0253,-0.0716 -0.0718,-0.0716 h -0.45187 c -0.0465,0 -0.0718,0.0253 -0.0718,0.0716 v 2.80436 c 0,0.0463 0.0253,0.0716 0.0718,0.0716 z m 3.03217,-0.46739 c -0.23649,0 -0.40964,-0.0969 -0.46875,-0.2695 -0.0127,-0.0337 -0.0211,-0.0758 -0.0295,-0.13052 0,-0.0169 0.008,-0.0253 0.0253,-0.0253 h 1.29648 c 0.0465,0 0.0718,-0.0253 0.0718,-0.0716 -0.004,-0.10948 -0.0127,-0.21475 -0.0253,-0.30738 -0.0929,-0.56846 -0.4012,-0.93058 -0.97131,-0.93058 -0.47298,0 -0.83194,0.2779 -0.94597,0.69056 -0.0338,0.12211 -0.0465,0.25265 -0.0465,0.41265 0,0.13896 0.0169,0.26949 0.0507,0.3916 0.11401,0.44634 0.45608,0.7411 0.98819,0.7411 0.3463,0 0.65036,-0.14317 0.83196,-0.37055 0.0253,-0.0379 0.0253,-0.0674 -0.008,-0.10106 l -0.24071,-0.23159 c -0.0337,-0.0337 -0.0676,-0.0295 -0.10136,0.008 -0.0929,0.11369 -0.23648,0.18527 -0.42653,0.1937 z m -0.10979,-1.22112 c 0.19425,0 0.31672,0.10526 0.36741,0.26528 0.008,0.0253 0.0127,0.0505 0.0169,0.0884 0.004,0.0169 -0.004,0.0253 -0.0211,0.0253 h -0.71793 c -0.0169,0 -0.0253,-0.008 -0.0211,-0.0253 0.004,-0.0421 0.0169,-0.0758 0.0253,-0.10527 0.0465,-0.15159 0.1647,-0.24843 0.35052,-0.24843 z m 3.31511,0.10948 c -0.11402,-0.37055 -0.43075,-0.61898 -0.81505,-0.61898 -0.22383,0 -0.37585,0.0884 -0.48143,0.22738 -0.0127,0.0169 -0.0295,0.0127 -0.0295,-0.008 v -0.11368 c 0,-0.0463 -0.0253,-0.0716 -0.0718,-0.0716 h -0.45187 c -0.0465,0 -0.0718,0.0253 -0.0718,0.0716 v 2.80436 c 0,0.0463 0.0253,0.0716 0.0718,0.0716 h 0.45187 c 0.0465,0 0.0718,-0.0253 0.0718,-0.0716 v -0.86742 c 0,-0.0211 0.0169,-0.0294 0.0295,-0.0127 0.10558,0.13053 0.26183,0.20632 0.48143,0.20632 0.38853,0 0.68414,-0.23579 0.80661,-0.5895 0.0591,-0.1558 0.0802,-0.33686 0.0802,-0.52213 0,-0.17686 -0.0169,-0.34949 -0.0718,-0.50529 z m -0.65457,0.93478 c -0.0676,0.10527 -0.16471,0.16001 -0.29562,0.16001 -0.12247,0 -0.21537,-0.0589 -0.28294,-0.16422 -0.0591,-0.10526 -0.0887,-0.25265 -0.0887,-0.4337 0,-0.17265 0.0295,-0.31581 0.0844,-0.41687 0.0633,-0.11368 0.16048,-0.18107 0.28717,-0.18107 0.13937,0 0.24494,0.0674 0.30828,0.18107 0.0549,0.10106 0.0887,0.24422 0.0887,0.41266 0,0.18526 -0.038,0.33685 -0.10135,0.44212 z m 1.00087,1.48219 h 0.0295 c 0.73481,0 0.89107,-0.1937 1.08533,-0.75794 l 0.72215,-2.16433 c 0.0169,-0.0463 -0.008,-0.08 -0.0591,-0.08 h -0.48566 c -0.0423,0 -0.0718,0.0253 -0.0802,0.0631 l -0.3294,1.2506 c -0.004,0.0211 -0.0295,0.0211 -0.0337,0 l -0.3463,-1.2548 c -0.0127,-0.0379 -0.038,-0.0589 -0.0802,-0.0589 h -0.48565 c -0.0507,0 -0.076,0.0337 -0.0591,0.08 l 0.67991,2.06748 c 0.004,0.008 0.004,0.0211 0,0.0336 -0.0676,0.27792 -0.2027,0.33266 -0.53633,0.33266 h -0.0253 c -0.0169,0 -0.0253,0.0253 -0.0253,0.0716 v 0.34529 c 0,0.0463 0.0127,0.0716 0.0296,0.0716 z"
       id="text2-1"
       aria-label="wakepy" /><path
       style="fill:#2d4e4e;fill-opacity:1;fill-rule:nonzero;stroke:none;stroke-width:0.4;stroke-linejoin:bevel;stroke-dasharray:none;stroke-dashoffset:1.57133;stroke-opacity:1;paint-order:fill markers stroke"
       d="m 439.59351,371.70278 -3.97971,-8.54377 c 2.44863,1.42936 1.47204,0.52743 3.13452,1.74114 2.26364,1.65259 3.05383,6.71436 3.05383,6.71436 z"
       id="path13"
       sodipodi:nodetypes="ccscc" /></g><g
     inkscape:groupmode="layer"
     id="layer3"
     inkscape:label="light"
     style="display:inline"
     transform="translate(-174.58775,-216.12833)"><path
       style="display:inline;fill:#f0f0f0;fill-opacity:0.174655;stroke:none;stroke-width:1.1;stroke-dasharray:none;stroke-dashoffset:1.57133;stroke-opacity:1;paint-order:stroke markers fill"
       d="m 389.5615,312.84373 c -2.86471,-20.43013 -5.80803,-27.3985 -10.31761,-55.14263 0,0 3.2683,-1.14831 6.89252,-3.50464 4.07497,-2.64938 5.50322,-4.53902 5.50322,-4.53902 l 64.55763,62.90299 c -48.28722,0.38348 -32.4764,0.34308 -66.63576,0.2833 z"
       id="path10"
       inkscape:label="light"
       sodipodi:nodetypes="ccsccc" /></g></svg>
