<?xml version="1.0" encoding="UTF-8" standalone="no"?>
<!-- Created with Inkscape (http://www.inkscape.org/) -->

<svg
   width="1280"
   height="640.00006"
   viewBox="0 0 338.66666 169.33333"
   version="1.1"
   id="svg1"
   xml:space="preserve"
   inkscape:version="1.3.2 (091e20ef0f, 2023-11-25)"
   sodipodi:docname="wakepy-github-social-share.svg"
   inkscape:export-filename="wakepy-github-social-share.png"
   inkscape:export-xdpi="96"
   inkscape:export-ydpi="96"
   xmlns:inkscape="http://www.inkscape.org/namespaces/inkscape"
   xmlns:sodipodi="http://sodipodi.sourceforge.net/DTD/sodipodi-0.dtd"
   xmlns:xlink="http://www.w3.org/1999/xlink"
   xmlns="http://www.w3.org/2000/svg"
   xmlns:svg="http://www.w3.org/2000/svg"><sodipodi:namedview
     id="namedview1"
     pagecolor="#ffffff"
     bordercolor="#000000"
     borderopacity="0.25"
     inkscape:showpageshadow="2"
     inkscape:pageopacity="0.0"
     inkscape:pagecheckerboard="0"
     inkscape:deskcolor="#d1d1d1"
     inkscape:document-units="mm"
     inkscape:zoom="0.5"
     inkscape:cx="659"
     inkscape:cy="266"
     inkscape:window-width="1600"
     inkscape:window-height="836"
     inkscape:window-x="0"
     inkscape:window-y="0"
     inkscape:window-maximized="1"
     inkscape:current-layer="layer4"
     showborder="true"
     showguides="false" /><defs
     id="defs1"><linearGradient
       id="linearGradient1"
       inkscape:collect="always"><stop
         style="stop-color:#122124;stop-opacity:1;"
         offset="0"
         id="stop1" /><stop
         style="stop-color:#21383d;stop-opacity:1;"
         offset="1"
         id="stop2" /></linearGradient><linearGradient
       inkscape:collect="always"
       xlink:href="#linearGradient1"
       id="linearGradient2"
       x1="393.82867"
       y1="293.84558"
       x2="395.28091"
       y2="324.70749"
       gradientUnits="userSpaceOnUse"
       gradientTransform="matrix(0.95816085,0,0,1.5332947,14.675978,-134.96947)" /></defs><g
     inkscape:groupmode="layer"
     id="layer4"
     inkscape:label="sphere-bg"
     transform="translate(-181.9382,-196.68561)"
     style="display:inline"><rect
       style="fill:url(#linearGradient2);fill-opacity:1;fill-rule:nonzero;stroke:#284646;stroke-width:1;stroke-linejoin:bevel;stroke-dashoffset:1.57133;stroke-opacity:1;paint-order:fill markers stroke"
       id="rect3"
       width="337.66666"
       height="168.33334"
       x="182.4382"
       y="197.18561"
       rx="5.000001"
       ry="5" /><text
       xml:space="preserve"
       style="font-size:10.5488px;line-height:normal;font-family:Barlow;-inkscape-font-specification:'Barlow, Normal';text-decoration-color:#000000;fill:#8198a2;fill-opacity:1;stroke:none;stroke-width:0.4;stroke-linejoin:bevel;stroke-dashoffset:1.57133;paint-order:fill markers stroke"
       x="195.78802"
       y="251.9776"
       id="text4"><tspan
         sodipodi:role="line"
         id="tspan4"
         style="fill:#8198a2;fill-opacity:1;stroke:none;stroke-width:0.4"
         x="195.78802"
         y="251.9776">cross-platform keep-awake with python</tspan></text><path
       fill-rule="evenodd"
       clip-rule="evenodd"
       d="m 448.21701,215.1465 c -35.92904,0 -64.97423,29.25926 -64.97423,65.45702 0,28.93476 18.61023,53.42745 44.42761,62.09617 3.2278,0.6517 4.41012,-1.40843 4.41012,-3.14136 0,-1.51749 -0.10653,-6.71902 -0.10653,-12.1386 -18.07426,3.90208 -21.83807,-7.80292 -21.83807,-7.80292 -2.90465,-7.58617 -7.20841,-9.53591 -7.20841,-9.53591 -5.91573,-4.00985 0.43078,-4.00985 0.43078,-4.00985 6.56209,0.43379 10.00535,6.71901 10.00535,6.71901 5.80798,9.96946 15.16695,7.15258 18.93212,5.41828 0.53729,-4.2266 2.25958,-7.15258 4.08833,-8.7778 -14.41553,-1.51748 -29.5825,-7.15255 -29.5825,-32.29561 0,-7.15251 2.58013,-13.00439 6.66846,-17.55557 -0.64502,-1.62522 -2.90465,-8.34554 0.64637,-17.34009 0,0 5.48609,-1.73428 17.85612,6.71898 a 62.468583,62.468583 0 0 1 16.24423,-2.16785 c 5.48613,0 11.07862,0.75944 16.24291,2.16785 12.37134,-8.45326 17.85748,-6.71898 17.85748,-6.71898 3.55102,8.99455 1.29009,15.71487 0.645,17.34009 4.19605,4.55118 6.66981,10.40306 6.66981,17.55557 0,25.14306 -15.16695,30.6691 -29.69019,32.29561 2.36734,2.05882 4.41018,5.95961 4.41018,12.13732 0,8.77778 -0.10653,15.82263 -0.10653,17.98912 0,1.73428 1.18369,3.79441 4.41019,3.14405 25.81732,-8.67141 44.42759,-33.16275 44.42759,-62.09751 0.10652,-36.19776 -29.04519,-65.45702 -64.86656,-65.45702 z"
       fill="#ffffff"
       id="path1"
       style="fill:#ffffff;fill-opacity:0.303176;stroke-width:0.264583" /></g><g
     inkscape:label="figure"
     inkscape:groupmode="layer"
     id="layer1"
     transform="translate(-248.27752,-256.31089)"
     style="display:inline"><path
       style="fill:#ffffff;fill-opacity:1;stroke:#949494;stroke-width:0.399999;stroke-dasharray:none;stroke-dashoffset:1.57133;stroke-opacity:0.384233;paint-order:stroke markers fill"
       d="M 260.96088,404.35674 H 448.18646"
       id="path2" /><path
       style="fill:#a2a2a2;fill-opacity:1;stroke:#737373;stroke-width:2;stroke-dasharray:none;stroke-dashoffset:1.57133;stroke-opacity:1;paint-order:stroke markers fill"
       d="m 323.7601,399.02452 c 0,0 0.0965,-40.17723 0,-43.40707 -0.0965,-3.22985 2.25887,-5.60032 4.9725,-5.54957 2.71363,0.0508 66.80495,0.0387 69.61495,0 2.81001,-0.0387 5.08324,2.09411 4.9725,5.4429 -0.11073,3.34879 0,43.39073 0,43.39073"
       id="path4"
       sodipodi:nodetypes="czzzzc" /><path
       style="fill:#64c4ec;fill-opacity:1;stroke:#737373;stroke-width:1;stroke-dasharray:none;stroke-dashoffset:1.57133;stroke-opacity:1;paint-order:stroke markers fill"
       d="m 327.36225,399.12313 v -44.47211 h 72.35565 v 3.54814 40.64052"
       id="path5"
       sodipodi:nodetypes="ccccc" /><path
       style="fill:#284646;fill-opacity:1;stroke:#0e2f2f;stroke-width:2;stroke-dasharray:none;stroke-dashoffset:1.57133;stroke-opacity:1;paint-order:stroke markers fill"
       d="m 293.34958,395.87393 c -1.09964,-2.1059 -9.38459,-31.73686 -9.38459,-31.73686 l 20.18875,-22.22744 -0.76374,-0.99646 -20.80906,22.87263 9.62872,32.51811"
       id="path8"
       sodipodi:nodetypes="cccccc" /><g
       id="g25"
       transform="rotate(7.6683353,-1566.0901,1599.9527)"
       style="fill:#284646;fill-opacity:1;stroke:#0e2f2f;stroke-opacity:1"><path
         style="fill:#284646;fill-opacity:1;stroke:#0e2f2f;stroke-width:2;stroke-linecap:round;stroke-dasharray:none;stroke-dashoffset:1.57133;stroke-opacity:1;paint-order:stroke markers fill"
         d="m 114.59695,93.59314 c 0,0 -0.67151,-1.038319 -0.37905,-1.438931 1.04592,-1.432705 2.80035,-2.945294 3.90951,-3.572972 0.36589,-0.207057 1.21393,0.342164 1.21393,0.342164"
         id="path12"
         sodipodi:nodetypes="cssc" /><path
         style="fill:#284646;fill-opacity:1;stroke:#0e2f2f;stroke-width:2;stroke-dasharray:none;stroke-dashoffset:1.57133;stroke-opacity:1;paint-order:stroke markers fill"
         d="m 124.68216,109.49373 -5.28041,-7.25282 c 0,0 -2.52982,-3.389607 -5.28041,-7.252817 -0.29501,-0.414342 3.46722,-3.338482 3.46722,-3.338482 0,0 2.66195,-3.056568 4.0385,-2.23241 3.76311,2.253025 6.82008,4.866944 6.82008,4.866944 l 7.39137,5.973015 c 0,0 -1.57752,2.84325 -6.02258,6.16394 -2.7494,2.05395 -5.09954,3.29423 -4.99045,3.22273 l -0.0841,-0.0977 -0.0841,-0.0977"
         id="path9"
         sodipodi:nodetypes="ccscsccsccc" /></g><g
       id="g26"
       inkscape:transform-center-x="2.7222863"
       inkscape:transform-center-y="-0.10724712"
       transform="translate(184.15506,243.70564)"
       style="fill:#284646;fill-opacity:1;stroke:#0e2f2f;stroke-opacity:1"><circle
         style="fill:#284646;fill-opacity:1;stroke:#0e2f2f;stroke-width:1.99999;stroke-dasharray:none;stroke-dashoffset:1.57133;stroke-opacity:1;paint-order:stroke markers fill"
         id="path11"
         cx="99.206589"
         cy="120.73509"
         r="2.3573182" /><circle
         style="fill:#284646;fill-opacity:1;stroke:#0e2f2f;stroke-width:2;stroke-dasharray:none;stroke-dashoffset:1.57133;stroke-opacity:1;paint-order:stroke markers fill"
         id="path11-4"
         cx="99.203156"
         cy="120.70263"
         r="0.81700456" /></g><path
       id="path7"
       style="fill:#284646;fill-opacity:1;stroke:#0e2f2f;stroke-width:2;stroke-dasharray:none;stroke-dashoffset:1.57133;stroke-opacity:1;paint-order:stroke markers fill"
       d="m 296.55111,394.82484 a 8.4514894,8.4514894 0 0 0 -8.45116,8.45117 8.4514894,8.4514894 0 0 0 0.0413,0.58239 h 16.81965 a 8.4514894,8.4514894 0 0 0 0.0419,-0.58239 8.4514894,8.4514894 0 0 0 -8.45168,-8.45117 z" /><ellipse
       style="fill:#737373;fill-opacity:1;stroke:#737373;stroke-width:0.999993;stroke-linecap:butt;stroke-linejoin:bevel;stroke-dasharray:none;stroke-dashoffset:1.57133;stroke-opacity:1;paint-order:fill markers stroke"
       id="path21"
       cx="363.45834"
       cy="351.97342"
       rx="0.50000304"
       ry="0.50000352" /><path
       id="rect2"
       style="fill:#c2c2c2;fill-opacity:1;stroke:#737373;stroke-width:2;stroke-dasharray:none;stroke-dashoffset:1.57133;paint-order:stroke markers fill"
       d="m 315.62482,399.29542 c -0.63958,-10e-4 -0.071,1.52593 0.1588,2.06356 0.73073,1.70987 1.38966,1.92244 1.56436,1.92598 7.59586,-0.003 15.1917,-0.0112 22.78757,-0.016 22.90628,0.019 45.81285,0.0409 68.71913,0.0486 0.1747,-0.004 0.83362,-0.21663 1.56436,-1.9265 0.2617,-0.61236 0.90705,-2.19913 -0.126,-2.20527 -3.12274,0.0391 -87.60595,0.12553 -94.66822,0.10963 z"
       sodipodi:nodetypes="sscccscs" /><path
       style="fill:#737373;fill-opacity:0.0862745;stroke:#737373;stroke-width:1;stroke-linecap:round;stroke-linejoin:round;stroke-dasharray:none;stroke-dashoffset:1.57133;stroke-opacity:1;paint-order:stroke markers fill"
       d="m 357.51927,398.88579 0.84834,1.74335 h 10.50098 l 0.69469,-1.13024 0.46951,-0.7486"
       id="path3"
       sodipodi:nodetypes="ccccc" /><g
       id="g27"
       transform="translate(179.98936,243.75913)"><path
         style="fill:#af8445;fill-opacity:1;stroke:#795c30;stroke-width:2.00001;stroke-dasharray:none;stroke-dashoffset:1.57133;stroke-opacity:1;paint-order:stroke markers fill"
         d="m 235.97981,159.82361 -2.53497,-21.66351 15.86887,0.0571 -2.63567,21.5785 z"
         id="path14"
         sodipodi:nodetypes="ccccc" /><path
         style="fill:#caa670;fill-opacity:1;stroke:#665843;stroke-width:2;stroke-dasharray:none;stroke-dashoffset:1.57133;stroke-opacity:1;paint-order:stroke markers fill"
         d="m 231.60054,135.88488 0.0498,2.52005 18.97361,0.0719 0.0479,-2.50189 z"
         id="path15"
         sodipodi:nodetypes="ccccc" /><path
         style="fill:#c49c60;fill-opacity:1;stroke:#665843;stroke-width:2;stroke-dasharray:none;stroke-dashoffset:1.57133;stroke-opacity:1;paint-order:stroke markers fill"
         d="m 234.13826,135.18191 -0.0621,-2.04822 14.08634,0.062 0.0202,2.03935"
         id="path16"
         sodipodi:nodetypes="cccc" /><path
         style="fill:#caa670;fill-opacity:1;stroke:none;stroke-width:1;stroke-linecap:butt;stroke-linejoin:bevel;stroke-dasharray:none;stroke-dashoffset:1.57133;stroke-opacity:1;paint-order:fill markers stroke"
         d="m 235.988,159.93221 -2.47253,-20.50028 13.14427,0.0453 -0.15889,4.23481 -1.06996,9.41195 -0.63635,6.95168 z"
         id="path22"
         sodipodi:nodetypes="ccccccc" /><path
         style="fill:#98743c;fill-opacity:1;stroke:#795c30;stroke-width:2;stroke-linecap:round;stroke-linejoin:round;stroke-dasharray:none;stroke-dashoffset:1.57133;stroke-opacity:1;paint-order:stroke markers fill"
         d="m 234.41543,152.60591 h 13.92213 l 1.04671,-8.05778 c -4.49903,0.0219 -12.35831,-0.005 -16.37641,-0.0521 z"
         id="path17"
         sodipodi:nodetypes="ccccc" /><path
         style="fill:#c1934e;fill-opacity:1;stroke:none;stroke-width:1;stroke-linecap:butt;stroke-linejoin:bevel;stroke-dasharray:none;stroke-dashoffset:1.57133;stroke-opacity:1;paint-order:fill markers stroke"
         d="m 246.14269,152.6197 2.24457,0.0623 -13.95898,0.0258 -1.45908,-8.29523 13.6567,0.29246 z"
         id="path23"
         sodipodi:nodetypes="cccccc" /><path
         style="fill:#dfcaac;fill-opacity:1;stroke:none;stroke-width:1;stroke-linecap:butt;stroke-linejoin:bevel;stroke-dasharray:none;stroke-dashoffset:1.57133;stroke-opacity:1;paint-order:fill markers stroke"
         d="m 246.70125,135.19855 -12.56962,-0.0425 -0.12469,-1.95804 12.73313,-0.006 z"
         id="path24"
         sodipodi:nodetypes="ccccc" /><path
         style="fill:#dfcaac;fill-opacity:1;stroke:none;stroke-width:1;stroke-linecap:butt;stroke-linejoin:bevel;stroke-dasharray:none;stroke-dashoffset:1.57133;stroke-opacity:1;paint-order:fill markers stroke"
         d="m 246.79094,138.47987 -15.17603,0.0591 0.0132,-2.60815 15.12409,0.0834 z"
         id="path24-3"
         sodipodi:nodetypes="ccccc" /></g><g
       id="g1"
       transform="matrix(1.0192438,0,0,0.81922561,246.09414,230.63801)"
       style="stroke-width:1.09435"><rect
         style="fill:#304148;fill-opacity:1;stroke:none;stroke-width:1.09435;stroke-linecap:butt;stroke-linejoin:bevel;stroke-dasharray:none;stroke-dashoffset:1.57133;stroke-opacity:1;paint-order:fill markers stroke"
         id="rect28-4"
         width="62.745731"
         height="11.165915"
         x="82.986816"
         y="172.38208"
         ry="2.44133"
         rx="1.962239" /><rect
         style="fill:#27c93f;fill-opacity:1;stroke:none;stroke-width:1.09435;stroke-linecap:butt;stroke-linejoin:bevel;stroke-dasharray:none;stroke-dashoffset:1.57133;stroke-opacity:1;paint-order:fill markers stroke"
         id="rect28-4-4"
         width="43.613049"
         height="7.3676963"
         x="84.63224"
         y="174.24046"
         ry="2.44133"
         rx="1.962239" /></g><path
       style="font-size:63.7838px;font-family:Barlow;-inkscape-font-specification:'Barlow, Normal';fill:#c7c7c7;fill-opacity:1;stroke:none;stroke-width:0.999998;stroke-linejoin:bevel;stroke-dashoffset:1.57133;stroke-opacity:1;paint-order:fill markers stroke"
       d="m 267.16077,296.23513 h 1.69128 c 0.23679,0 0.40591,-0.10044 0.47356,-0.36828 l 3.51784,-12.35465 c 0.0339,-0.13393 0.16914,-0.13393 0.20296,0 l 3.65316,12.35465 c 0.0676,0.26785 0.23678,0.36828 0.47355,0.36828 h 1.65744 c 0.23679,0 0.40592,-0.10044 0.47357,-0.36828 l 4.80322,-16.0376 c 0.10148,-0.30134 -0.0676,-0.50222 -0.37207,-0.50222 l -1.556,-0.0335 c -0.23676,0 -0.43972,0.10045 -0.50737,0.36829 l -3.61933,13.05776 c -0.0339,0.13393 -0.16912,0.13393 -0.20296,0 l -3.68697,-13.05776 c -0.0676,-0.26784 -0.23678,-0.36827 -0.47355,-0.36827 h -1.48832 c -0.23679,0 -0.40591,0.10044 -0.47355,0.36827 l -3.61933,13.05776 c -0.0339,0.13393 -0.16914,0.13393 -0.20295,0 l -3.51786,-13.05776 c -0.0676,-0.26784 -0.23678,-0.36827 -0.47356,-0.36827 h -1.58979 c -0.30443,0 -0.47357,0.20088 -0.3721,0.50221 l 4.73557,16.07107 c 0.0676,0.26785 0.23679,0.3683 0.47356,0.3683 z m 26.31626,-17.20943 c -3.48402,0 -5.98711,1.67406 -6.42683,4.11821 -0.0339,0.23436 0.13529,0.33481 0.4059,0.36829 l 1.65745,0.20089 c 0.2706,0.0335 0.43973,-0.067 0.50738,-0.33482 0.37208,-1.40621 1.75893,-2.27672 3.88995,-2.27672 2.8075,0 3.95757,1.50666 3.95757,3.68295 v 1.23882 c 0,0.10044 -0.0677,0.1674 -0.16914,0.1674 h -3.92375 c -4.39731,0 -6.96804,2.07583 -6.96804,5.42398 0,3.51555 2.70603,4.88829 5.58119,4.88829 2.13101,0 4.02524,-0.66963 5.27679,-1.9754 0.10148,-0.13393 0.20295,-0.067 0.20295,0.067 v 1.20533 c 0,0.26785 0.16911,0.43525 0.43972,0.43525 h 1.52215 c 0.27061,0 0.43973,-0.1674 0.43973,-0.43525 v -11.14934 c 0,-3.31465 -2.26629,-5.62488 -6.39302,-5.62488 z m -0.9471,15.43492 c -2.06337,0 -3.72081,-0.93748 -3.72081,-2.97984 0,-2.17629 1.9957,-3.41511 4.93852,-3.41511 h 3.55167 c 0.10149,0 0.16914,0.067 0.16914,0.1674 v 2.57808 c 0,2.34369 -2.43543,3.64947 -4.93852,3.64947 z m 12.7522,1.77451 h 1.52214 c 0.27059,0 0.43973,-0.16741 0.43973,-0.43525 v -5.55791 c 0,-0.067 0.0339,-0.16741 0.0677,-0.23439 l 3.68698,-3.81686 c 0.0676,-0.067 0.20296,-0.067 0.23679,0.0335 l 4.29582,9.67613 c 0.10148,0.20089 0.27061,0.33482 0.5074,0.33482 h 1.58979 c 0.33826,0 0.47355,-0.20089 0.33826,-0.50223 l -5.07383,-11.08234 c -0.0339,-0.067 -0.0339,-0.16741 0.0339,-0.23436 l 4.19436,-4.58696 c 0.23678,-0.26786 0.10149,-0.5357 -0.2706,-0.5357 h -1.79275 c -0.20294,0 -0.4059,0.067 -0.54122,0.23438 l -7.06951,7.33242 c -0.10149,0.13391 -0.20296,0.0335 -0.20296,-0.10044 v -13.52649 c 0,-0.26786 -0.16912,-0.43526 -0.43973,-0.43526 h -1.52214 c -0.27061,0 -0.43973,0.1674 -0.43973,0.43526 v 22.56646 c 0,0.26785 0.16912,0.43525 0.43973,0.43525 z m 22.52777,-1.77451 c -2.46926,0 -4.1267,-1.33926 -4.60026,-3.28118 -0.1353,-0.50222 -0.20296,-1.33925 -0.20296,-2.44414 0,-0.10044 0.0676,-0.1674 0.16914,-0.1674 h 10.82416 c 0.27059,0 0.43971,-0.16741 0.43971,-0.43527 0,-1.57362 -0.0339,-2.44414 -0.20295,-3.34813 -0.60886,-3.51555 -2.73986,-5.7588 -6.7651,-5.7588 -3.34872,0 -5.78414,1.90843 -6.5283,4.78783 -0.27061,1.03793 -0.30444,2.1763 -0.30444,3.88385 0,1.87497 0.16913,3.38161 0.64268,4.62043 0.9133,2.57806 3.11195,4.18518 6.32537,4.18518 3.04428,0 5.24295,-1.47318 6.29154,-3.64947 0.13531,-0.23437 0.0339,-0.43527 -0.20294,-0.56919 l -0.98095,-0.53569 c -0.23678,-0.13394 -0.47356,-0.0335 -0.57504,0.20088 -0.77798,1.50666 -2.23248,2.47762 -4.32966,2.5111 z m -0.33826,-13.35907 c 2.33396,0 3.88994,1.33924 4.3635,3.28118 0.10148,0.46873 0.16912,1.23879 0.20295,2.1428 0,0.10044 -0.0677,0.1674 -0.16912,0.1674 h -8.69315 c -0.10149,0 -0.16914,-0.067 -0.16914,-0.1674 0.0339,-0.97096 0.10148,-1.74103 0.27061,-2.27674 0.43973,-1.84148 1.89423,-3.14724 4.19435,-3.14724 z m 25.03088,2.41065 c -0.81181,-2.71199 -2.97665,-4.4865 -6.19007,-4.4865 -1.79274,0 -3.31489,0.73659 -4.29583,2.04237 -0.10148,0.10044 -0.20296,0.067 -0.20296,-0.067 v -1.27229 c 0,-0.26785 -0.16912,-0.43525 -0.43973,-0.43525 h -1.52214 c -0.27059,0 -0.43973,0.1674 -0.43973,0.43525 v 22.56646 c 0,0.26786 0.16914,0.43526 0.43973,0.43526 h 1.52214 c 0.27061,0 0.43973,-0.1674 0.43973,-0.43526 v -7.73419 c 0,-0.13393 0.10149,-0.20089 0.20296,-0.067 0.98094,1.2723 2.50309,2.00889 4.29583,2.00889 3.28108,0 5.44591,-1.808 6.25772,-4.58695 0.33825,-1.13837 0.4059,-2.51111 0.4059,-4.15171 0,-1.70754 -0.10148,-3.08028 -0.47355,-4.25212 z m -2.70604,8.4708 c -0.57504,1.43969 -1.92805,2.44414 -3.75462,2.44414 -1.79276,0 -3.01047,-1.03793 -3.55169,-2.5111 -0.4059,-0.90399 -0.60885,-1.90846 -0.60885,-4.1517 0,-2.20977 0.16912,-3.21422 0.57503,-4.08473 0.54121,-1.50665 1.75893,-2.57806 3.61933,-2.57806 1.89423,0 3.34872,1.00443 3.88993,2.61154 0.4059,0.90399 0.60886,1.87496 0.60886,4.05125 0,2.31022 -0.27061,3.31465 -0.77799,4.21866 z m 6.96804,10.94843 h 0.23679 c 3.75462,0 4.76939,-0.93749 6.29154,-5.22312 l 6.22387,-17.91254 c 0.10148,-0.30133 -0.0676,-0.50221 -0.37208,-0.50221 h -1.62361 c -0.23678,0 -0.40591,0.10044 -0.47357,0.36829 l -4.262,13.1247 c -0.0339,0.16741 -0.16913,0.16741 -0.20295,0 l -4.36349,-13.1247 c -0.0676,-0.23438 -0.27061,-0.36829 -0.50738,-0.36829 h -1.58979 c -0.30444,0 -0.47357,0.20088 -0.37208,0.50221 l 5.68267,16.33893 c 0.0339,0.10044 0.0339,0.13392 0,0.2009 -1.15006,3.7499 -1.89424,4.55345 -4.43113,4.55345 h -0.23679 c -0.1353,0 -0.23679,0.1674 -0.23679,0.43525 v 1.17187 c 0,0.26784 0.10149,0.43526 0.23679,0.43526 z"
       id="text2"
       aria-label="wakepy" /><path
       style="font-weight:bold;font-size:4.21691px;font-family:Barlow;-inkscape-font-specification:'Barlow, Normal';fill:#795c30;stroke-width:0.999995;stroke-linejoin:bevel;stroke-dashoffset:1.57133;paint-order:fill markers stroke"
       d="m 414.86311,393.36721 h 0.47298 c 0.0423,0 0.0718,-0.0253 0.0802,-0.0632 l 0.27872,-1.09901 c 0.004,-0.0253 0.0253,-0.0211 0.0337,0 l 0.31674,1.10322 c 0.0127,0.0378 0.038,0.0589 0.0802,0.0589 h 0.47299 c 0.0423,0 0.0676,-0.0211 0.0802,-0.0589 l 0.60389,-2.02116 c 0.0127,-0.0463 -0.008,-0.08 -0.0591,-0.08 l -0.46454,-0.004 c -0.0423,0 -0.0718,0.0253 -0.0802,0.0631 l -0.32096,1.2506 c -0.004,0.0253 -0.0295,0.0253 -0.0338,0 l -0.32096,-1.2506 c -0.008,-0.0379 -0.038,-0.0631 -0.0802,-0.0631 h -0.41387 c -0.0423,0 -0.0718,0.0211 -0.0802,0.0631 l -0.31251,1.24639 c -0.004,0.0253 -0.0295,0.0211 -0.0337,0 l -0.29139,-1.24639 c -0.008,-0.0421 -0.038,-0.0631 -0.0802,-0.0631 h -0.46454 c -0.0507,0 -0.0718,0.0295 -0.0591,0.08 l 0.59545,2.02538 c 0.0127,0.0378 0.0381,0.0589 0.0802,0.0589 z m 3.50093,-2.19801 c -0.51099,0 -0.88685,0.25686 -0.92908,0.60634 -0.004,0.0337 0.0253,0.0547 0.0676,0.0589 l 0.46876,0.0589 c 0.0423,0.004 0.0676,-0.0127 0.0844,-0.0547 0.0381,-0.10105 0.15203,-0.16 0.32096,-0.16 0.22382,0 0.33784,0.11369 0.33784,0.29474 v 0.0885 c 0,0.0169 -0.0127,0.0253 -0.0253,0.0253 h -0.42654 c -0.57011,0 -0.8784,0.25685 -0.8784,0.68214 0,0.43371 0.30829,0.63162 0.72215,0.63162 0.25339,0 0.44765,-0.0716 0.57856,-0.21476 0.0169,-0.0169 0.0295,-0.0127 0.0295,0.008 v 0.10105 c 0,0.0463 0.0253,0.0716 0.0718,0.0716 h 0.45187 c 0.0465,0 0.0718,-0.0253 0.0718,-0.0716 v -1.40638 c 0,-0.40844 -0.38851,-0.72004 -0.94596,-0.72004 z m -0.0844,1.78956 c -0.17737,0 -0.29984,-0.0927 -0.29984,-0.24422 0,-0.17685 0.15625,-0.2737 0.40964,-0.2737 h 0.29984 c 0.0169,0 0.0253,0.0127 0.0253,0.0253 v 0.14739 c 0,0.20632 -0.19849,0.34527 -0.43497,0.34527 z m 1.51608,0.40845 h 0.45187 c 0.0465,0 0.0718,-0.0253 0.0718,-0.0716 v -0.5895 c 0,-0.0127 0.004,-0.0169 0.0127,-0.0294 l 0.26182,-0.33266 c 0.0127,-0.0127 0.0253,-0.0169 0.0338,0.004 l 0.40964,0.96426 c 0.0169,0.0378 0.0465,0.0547 0.0844,0.0547 h 0.47721 c 0.0549,0 0.076,-0.0379 0.0549,-0.0842 l -0.6208,-1.30954 c -0.004,-0.0127 -0.004,-0.0253 0.004,-0.0337 l 0.51944,-0.64845 c 0.038,-0.0505 0.0126,-0.0885 -0.0465,-0.0885 h -0.51099 c -0.0381,0 -0.0634,0.0169 -0.0887,0.0421 l -0.56167,0.64425 c -0.0127,0.0169 -0.0295,0.0127 -0.0295,-0.008 v -1.38944 c 0,-0.0463 -0.0253,-0.0716 -0.0718,-0.0716 h -0.45187 c -0.0465,0 -0.0718,0.0253 -0.0718,0.0716 v 2.80436 c 0,0.0463 0.0253,0.0716 0.0718,0.0716 z m 3.03217,-0.46739 c -0.23649,0 -0.40964,-0.0969 -0.46875,-0.2695 -0.0127,-0.0337 -0.0211,-0.0758 -0.0295,-0.13052 0,-0.0169 0.008,-0.0253 0.0253,-0.0253 h 1.29648 c 0.0465,0 0.0718,-0.0253 0.0718,-0.0716 -0.004,-0.10948 -0.0127,-0.21475 -0.0253,-0.30738 -0.0929,-0.56846 -0.4012,-0.93058 -0.97131,-0.93058 -0.47298,0 -0.83194,0.2779 -0.94597,0.69056 -0.0338,0.12211 -0.0465,0.25265 -0.0465,0.41265 0,0.13896 0.0169,0.26949 0.0507,0.3916 0.11401,0.44634 0.45608,0.7411 0.98819,0.7411 0.3463,0 0.65036,-0.14317 0.83196,-0.37055 0.0253,-0.0379 0.0253,-0.0674 -0.008,-0.10106 l -0.24071,-0.23159 c -0.0337,-0.0337 -0.0676,-0.0295 -0.10136,0.008 -0.0929,0.11369 -0.23648,0.18527 -0.42653,0.1937 z m -0.10979,-1.22112 c 0.19425,0 0.31672,0.10526 0.36741,0.26528 0.008,0.0253 0.0127,0.0505 0.0169,0.0884 0.004,0.0169 -0.004,0.0253 -0.0211,0.0253 h -0.71793 c -0.0169,0 -0.0253,-0.008 -0.0211,-0.0253 0.004,-0.0421 0.0169,-0.0758 0.0253,-0.10527 0.0465,-0.15159 0.1647,-0.24843 0.35052,-0.24843 z m 3.31511,0.10948 c -0.11402,-0.37055 -0.43075,-0.61898 -0.81505,-0.61898 -0.22383,0 -0.37585,0.0884 -0.48143,0.22738 -0.0127,0.0169 -0.0295,0.0127 -0.0295,-0.008 v -0.11368 c 0,-0.0463 -0.0253,-0.0716 -0.0718,-0.0716 h -0.45187 c -0.0465,0 -0.0718,0.0253 -0.0718,0.0716 v 2.80436 c 0,0.0463 0.0253,0.0716 0.0718,0.0716 h 0.45187 c 0.0465,0 0.0718,-0.0253 0.0718,-0.0716 v -0.86742 c 0,-0.0211 0.0169,-0.0294 0.0295,-0.0127 0.10558,0.13053 0.26183,0.20632 0.48143,0.20632 0.38853,0 0.68414,-0.23579 0.80661,-0.5895 0.0591,-0.1558 0.0802,-0.33686 0.0802,-0.52213 0,-0.17686 -0.0169,-0.34949 -0.0718,-0.50529 z m -0.65457,0.93478 c -0.0676,0.10527 -0.16471,0.16001 -0.29562,0.16001 -0.12247,0 -0.21537,-0.0589 -0.28294,-0.16422 -0.0591,-0.10526 -0.0887,-0.25265 -0.0887,-0.4337 0,-0.17265 0.0295,-0.31581 0.0844,-0.41687 0.0633,-0.11368 0.16048,-0.18107 0.28717,-0.18107 0.13937,0 0.24494,0.0674 0.30828,0.18107 0.0549,0.10106 0.0887,0.24422 0.0887,0.41266 0,0.18526 -0.038,0.33685 -0.10135,0.44212 z m 1.00087,1.48219 h 0.0295 c 0.73481,0 0.89107,-0.1937 1.08533,-0.75794 l 0.72215,-2.16433 c 0.0169,-0.0463 -0.008,-0.08 -0.0591,-0.08 h -0.48566 c -0.0423,0 -0.0718,0.0253 -0.0802,0.0631 l -0.3294,1.2506 c -0.004,0.0211 -0.0295,0.0211 -0.0337,0 l -0.3463,-1.2548 c -0.0127,-0.0379 -0.038,-0.0589 -0.0802,-0.0589 h -0.48565 c -0.0507,0 -0.076,0.0337 -0.0591,0.08 l 0.67991,2.06748 c 0.004,0.008 0.004,0.0211 0,0.0336 -0.0676,0.27792 -0.2027,0.33266 -0.53633,0.33266 h -0.0253 c -0.0169,0 -0.0253,0.0253 -0.0253,0.0716 v 0.34529 c 0,0.0463 0.0127,0.0716 0.0296,0.0716 z"
       id="text2-1"
       aria-label="wakepy" /><path
       style="fill:#2d4e4e;fill-opacity:1;fill-rule:nonzero;stroke:none;stroke-width:0.4;stroke-linejoin:bevel;stroke-dasharray:none;stroke-dashoffset:1.57133;stroke-opacity:1;paint-order:fill markers stroke"
       d="m 303.13465,403.81451 -3.97971,-8.54377 c 2.44863,1.42936 1.47204,0.52743 3.13452,1.74114 2.26364,1.65259 3.05383,6.71436 3.05383,6.71436 z"
       id="path13"
       sodipodi:nodetypes="ccscc" /></g><g
     inkscape:groupmode="layer"
     id="layer3"
     inkscape:label="light"
     style="display:inline"
     transform="translate(-181.9382,-196.68561)"><path
       style="display:inline;fill:#f0f0f0;fill-opacity:0.174655;stroke:none;stroke-width:1.1;stroke-dasharray:none;stroke-dashoffset:1.57133;stroke-opacity:1;paint-order:stroke markers fill"
       d="m 253.10264,344.95546 c -2.86471,-20.43013 -5.80803,-27.3985 -10.31761,-55.14263 0,0 3.2683,-1.14831 6.89252,-3.50464 4.07497,-2.64938 5.50322,-4.53902 5.50322,-4.53902 l 64.55763,62.90299 c -48.28722,0.38348 -32.4764,0.34308 -66.63576,0.2833 z"
       id="path10"
       inkscape:label="light"
       sodipodi:nodetypes="ccsccc" /></g></svg>
