<?xml version="1.0" encoding="UTF-8" standalone="no"?>
<!-- Created with Inkscape (http://www.inkscape.org/) -->

<svg
   width="1280"
   height="640"
   viewBox="0 0 338.66667 169.33333"
   version="1.1"
   id="svg1"
   xml:space="preserve"
   inkscape:version="1.3.2 (091e20ef0f, 2023-11-25)"
   sodipodi:docname="wakepy-logo.svg"
   inkscape:export-filename="wakepy-social-share-image.png"
   inkscape:export-xdpi="96"
   inkscape:export-ydpi="96"
   xmlns:inkscape="http://www.inkscape.org/namespaces/inkscape"
   xmlns:sodipodi="http://sodipodi.sourceforge.net/DTD/sodipodi-0.dtd"
   xmlns="http://www.w3.org/2000/svg"
   xmlns:svg="http://www.w3.org/2000/svg"><sodipodi:namedview
     id="namedview1"
     pagecolor="#ffffff"
     bordercolor="#000000"
     borderopacity="0.25"
     inkscape:showpageshadow="2"
     inkscape:pageopacity="0.0"
     inkscape:pagecheckerboard="0"
     inkscape:deskcolor="#d1d1d1"
     inkscape:document-units="mm"
     inkscape:zoom="0.70710678"
     inkscape:cx="721.24892"
     inkscape:cy="236.17367"
     inkscape:window-width="1600"
     inkscape:window-height="836"
     inkscape:window-x="0"
     inkscape:window-y="0"
     inkscape:window-maximized="1"
     inkscape:current-layer="layer4"
     showborder="true" /><defs
     id="defs1" /><g
     inkscape:groupmode="layer"
     id="layer4"
     inkscape:label="sphere-bg"
     transform="translate(-245.9399,-173.62105)"
     style="display:inline"><rect
       style="display:inline;fill:#ffffff;fill-opacity:1;stroke:#ffffff;stroke-width:0.999999;stroke-linejoin:bevel;stroke-dashoffset:1.57133;stroke-opacity:1;paint-order:fill markers stroke"
       id="rect1"
       width="337.66666"
       height="168.33333"
       x="246.4399"
       y="174.12105"
       rx="5"
       ry="5" /><path
       id="path20"
       style="fill:#17171e;fill-opacity:1;stroke:none;stroke-width:2.00002;stroke-linecap:round;stroke-linejoin:round;stroke-dasharray:none;stroke-dashoffset:1.57133;stroke-opacity:1;paint-order:stroke markers fill"
       d="M 414.51217,182.77113 A 104.09486,110.4938 0 0 0 311.3009,281.37855 h 206.58067 a 104.09486,110.4938 0 0 0 -103.3694,-98.60742 z" /></g><g
     inkscape:label="figure"
     inkscape:groupmode="layer"
     id="layer1"
     transform="translate(-312.27922,-233.24633)"
     style="display:inline"><path
       style="fill:#ffffff;fill-opacity:1;stroke:#949494;stroke-width:0.2;stroke-dasharray:none;stroke-dashoffset:1.57133;stroke-opacity:0.384233;paint-order:stroke markers fill"
       d="M 377.50579,340.50743 H 577.07572"
       id="path2" /><path
       style="fill:#a2a2a2;fill-opacity:1;stroke:#737373;stroke-width:2;stroke-dasharray:none;stroke-dashoffset:1.57133;stroke-opacity:1;paint-order:stroke markers fill"
       d="m 445.79916,335.17519 c 0,0 0.0965,-40.17723 0,-43.40707 -0.0965,-3.22985 2.25887,-5.60032 4.9725,-5.54957 2.71363,0.0508 66.80495,0.0387 69.61495,0 2.81001,-0.0387 5.08324,2.09411 4.9725,5.4429 -0.11073,3.34879 0,43.39073 0,43.39073"
       id="path4"
       sodipodi:nodetypes="czzzzc" /><path
       style="fill:#64c4ec;fill-opacity:1;stroke:#737373;stroke-width:1;stroke-dasharray:none;stroke-dashoffset:1.57133;stroke-opacity:1;paint-order:stroke markers fill"
       d="m 449.40131,335.2738 v -44.47211 h 72.35565 v 3.54814 40.64052"
       id="path5"
       sodipodi:nodetypes="ccccc" /><path
       style="fill:#3e4747;fill-opacity:1;stroke:#293d3d;stroke-width:2;stroke-dasharray:none;stroke-dashoffset:1.57133;stroke-opacity:1;paint-order:stroke markers fill"
       d="m 415.38864,332.0246 c -1.09964,-2.1059 -9.38459,-31.73686 -9.38459,-31.73686 l 20.18875,-22.22744 -0.76374,-0.99646 -20.80906,22.87263 9.62872,32.51811"
       id="path8"
       sodipodi:nodetypes="cccccc" /><g
       id="g25"
       transform="rotate(7.6683353,-1028.7174,2478.5102)"
       style="fill:#3e4747;fill-opacity:1;stroke:#293d3d;stroke-opacity:1"><path
         style="fill:#3e4747;fill-opacity:1;stroke:#293d3d;stroke-width:2;stroke-linecap:round;stroke-dasharray:none;stroke-dashoffset:1.57133;stroke-opacity:1;paint-order:stroke markers fill"
         d="m 114.59695,93.59314 c 0,0 -0.67151,-1.038319 -0.37905,-1.438931 1.04592,-1.432705 2.80035,-2.945294 3.90951,-3.572972 0.36589,-0.207057 1.21393,0.342164 1.21393,0.342164"
         id="path12"
         sodipodi:nodetypes="cssc" /><path
         style="fill:#3e4747;fill-opacity:1;stroke:#293d3d;stroke-width:2;stroke-dasharray:none;stroke-dashoffset:1.57133;stroke-opacity:1;paint-order:stroke markers fill"
         d="m 124.68216,109.49373 -5.28041,-7.25282 c 0,0 -2.52982,-3.389607 -5.28041,-7.252817 -0.29501,-0.414342 3.46722,-3.338482 3.46722,-3.338482 0,0 2.66195,-3.056568 4.0385,-2.23241 3.76311,2.253025 6.82008,4.866944 6.82008,4.866944 l 7.39137,5.973015 c 0,0 -1.57752,2.84325 -6.02258,6.16394 -2.7494,2.05395 -5.09954,3.29423 -4.99045,3.22273 l -0.0841,-0.0977 -0.0841,-0.0977"
         id="path9"
         sodipodi:nodetypes="ccscsccsccc" /></g><g
       id="g26"
       inkscape:transform-center-x="2.7222863"
       inkscape:transform-center-y="-0.10724712"
       transform="translate(306.19412,179.85631)"
       style="fill:#3e4747;fill-opacity:1;stroke:#293d3d;stroke-opacity:1"><circle
         style="fill:#3e4747;fill-opacity:1;stroke:#293d3d;stroke-width:1.99999;stroke-dasharray:none;stroke-dashoffset:1.57133;stroke-opacity:1;paint-order:stroke markers fill"
         id="path11"
         cx="99.206589"
         cy="120.73509"
         r="2.3573182" /><circle
         style="fill:#3e4747;fill-opacity:1;stroke:#293d3d;stroke-width:2;stroke-dasharray:none;stroke-dashoffset:1.57133;stroke-opacity:1;paint-order:stroke markers fill"
         id="path11-4"
         cx="99.203156"
         cy="120.70263"
         r="0.81700456" /></g><path
       id="path7"
       style="fill:#3e4747;fill-opacity:1;stroke:#293d3d;stroke-width:2;stroke-dasharray:none;stroke-dashoffset:1.57133;stroke-opacity:1;paint-order:stroke markers fill"
       d="m 418.59017,330.97551 a 8.4514894,8.4514894 0 0 0 -8.45116,8.45117 8.4514894,8.4514894 0 0 0 0.0413,0.58239 h 16.81965 a 8.4514894,8.4514894 0 0 0 0.0419,-0.58239 8.4514894,8.4514894 0 0 0 -8.45168,-8.45117 z" /><ellipse
       style="fill:#737373;fill-opacity:1;stroke:#737373;stroke-width:0.999993;stroke-linecap:butt;stroke-linejoin:bevel;stroke-dasharray:none;stroke-dashoffset:1.57133;stroke-opacity:1;paint-order:fill markers stroke"
       id="path21"
       cx="485.49744"
       cy="288.12411"
       rx="0.50000304"
       ry="0.50000352" /><path
       id="rect2"
       style="fill:#c2c2c2;fill-opacity:1;stroke:#737373;stroke-width:2;stroke-dasharray:none;stroke-dashoffset:1.57133;paint-order:stroke markers fill"
       d="m 437.66388,335.44609 c -0.63958,-0.001 -0.071,1.52593 0.1588,2.06356 0.73073,1.70987 1.38966,1.92244 1.56436,1.92598 7.59586,-0.003 15.1917,-0.0112 22.78757,-0.016 22.90628,0.019 45.81285,0.0409 68.71913,0.0486 0.1747,-0.004 0.83362,-0.21663 1.56436,-1.9265 0.2617,-0.61236 0.90705,-2.19913 -0.126,-2.20527 -3.12274,0.0391 -87.60595,0.12553 -94.66822,0.10963 z"
       sodipodi:nodetypes="sscccscs" /><path
       style="fill:#737373;fill-opacity:0.0862745;stroke:#737373;stroke-width:1;stroke-linecap:round;stroke-linejoin:round;stroke-dasharray:none;stroke-dashoffset:1.57133;stroke-opacity:1;paint-order:stroke markers fill"
       d="m 479.55833,335.03646 0.84834,1.74335 h 10.50098 l 0.69469,-1.13024 0.46951,-0.7486"
       id="path3"
       sodipodi:nodetypes="ccccc" /><g
       id="g27"
       transform="translate(302.02842,179.9098)"><path
         style="fill:#af8445;fill-opacity:1;stroke:#795c30;stroke-width:2.00001;stroke-dasharray:none;stroke-dashoffset:1.57133;stroke-opacity:1;paint-order:stroke markers fill"
         d="m 235.97981,159.82361 -2.53497,-21.66351 15.86887,0.0571 -2.63567,21.5785 z"
         id="path14"
         sodipodi:nodetypes="ccccc" /><path
         style="fill:#caa670;fill-opacity:1;stroke:#665843;stroke-width:2;stroke-dasharray:none;stroke-dashoffset:1.57133;stroke-opacity:1;paint-order:stroke markers fill"
         d="m 231.60054,135.88488 0.0498,2.52005 18.97361,0.0719 0.0479,-2.50189 z"
         id="path15"
         sodipodi:nodetypes="ccccc" /><path
         style="fill:#c49c60;fill-opacity:1;stroke:#665843;stroke-width:2;stroke-dasharray:none;stroke-dashoffset:1.57133;stroke-opacity:1;paint-order:stroke markers fill"
         d="m 234.13826,135.18191 -0.0621,-2.04822 14.08634,0.062 0.0202,2.03935"
         id="path16"
         sodipodi:nodetypes="cccc" /><path
         style="fill:#caa670;fill-opacity:1;stroke:none;stroke-width:1;stroke-linecap:butt;stroke-linejoin:bevel;stroke-dasharray:none;stroke-dashoffset:1.57133;stroke-opacity:1;paint-order:fill markers stroke"
         d="m 235.988,159.93221 -2.47253,-20.50028 9.01515,0.1322 6.37382,7.1659 -2.17467,13.06108 z"
         id="path22"
         sodipodi:nodetypes="cccccc" /><path
         style="fill:#98743c;fill-opacity:1;stroke:#795c30;stroke-width:2;stroke-linecap:round;stroke-linejoin:round;stroke-dasharray:none;stroke-dashoffset:1.57133;stroke-opacity:1;paint-order:stroke markers fill"
         d="m 234.41543,152.60591 h 13.92213 l 1.04671,-8.05778 c -4.49903,0.0219 -12.35831,-0.005 -16.37641,-0.0521 z"
         id="path17"
         sodipodi:nodetypes="ccccc" /><path
         style="fill:#c1934e;fill-opacity:1;stroke:none;stroke-width:1;stroke-linecap:butt;stroke-linejoin:bevel;stroke-dasharray:none;stroke-dashoffset:1.57133;stroke-opacity:1;paint-order:fill markers stroke"
         d="m 249.02227,146.94045 -0.63501,5.74159 -13.95898,0.0258 -1.45908,-8.29523 13.57608,0.0722 z"
         id="path23"
         sodipodi:nodetypes="cccccc" /><path
         style="fill:#dfcaac;fill-opacity:1;stroke:none;stroke-width:1;stroke-linecap:butt;stroke-linejoin:bevel;stroke-dasharray:none;stroke-dashoffset:1.57133;stroke-opacity:1;paint-order:fill markers stroke"
         d="m 239.24113,135.09911 -5.1095,0.0569 -0.12469,-1.95804 3.19193,0.0188 z"
         id="path24" /><path
         style="fill:#dfcaac;fill-opacity:1;stroke:none;stroke-width:1;stroke-linecap:butt;stroke-linejoin:bevel;stroke-dasharray:none;stroke-dashoffset:1.57133;stroke-opacity:1;paint-order:fill markers stroke"
         d="m 242.03753,138.57689 -10.42262,-0.0379 0.0132,-2.60815 8.00201,-0.1937 z"
         id="path24-3"
         sodipodi:nodetypes="ccccc" /></g><g
       id="g1"
       transform="matrix(1.0192438,0,0,0.81922561,368.1332,166.78868)"
       style="stroke-width:1.09435"><rect
         style="fill:#304148;fill-opacity:1;stroke:none;stroke-width:1.09435;stroke-linecap:butt;stroke-linejoin:bevel;stroke-dasharray:none;stroke-dashoffset:1.57133;stroke-opacity:1;paint-order:fill markers stroke"
         id="rect28-4"
         width="62.745731"
         height="11.165915"
         x="82.986816"
         y="172.38208"
         ry="2.44133"
         rx="1.962239" /><rect
         style="fill:#27c93f;fill-opacity:1;stroke:none;stroke-width:1.09435;stroke-linecap:butt;stroke-linejoin:bevel;stroke-dasharray:none;stroke-dashoffset:1.57133;stroke-opacity:1;paint-order:fill markers stroke"
         id="rect28-4-4"
         width="43.613049"
         height="7.3676963"
         x="84.63224"
         y="174.24046"
         ry="2.44133"
         rx="1.962239" /></g><path
       style="font-size:63.7838px;font-family:Barlow;-inkscape-font-specification:'Barlow, Normal';fill:#3e4747;stroke:#304148;stroke-width:0.999997;stroke-linejoin:bevel;stroke-dashoffset:1.57133;paint-order:fill markers stroke"
       d="m 389.70476,382.10638 h 3.19385 c 0.44714,0 0.76653,-0.19107 0.89429,-0.7006 l 6.64321,-23.50186 c 0.0639,-0.25476 0.31939,-0.25476 0.38327,0 l 6.89872,23.50186 c 0.12775,0.50953 0.44714,0.7006 0.89428,0.7006 h 3.12997 c 0.44714,0 0.76653,-0.19107 0.89429,-0.7006 l 9.07054,-30.50782 c 0.19163,-0.57322 -0.12775,-0.95536 -0.70264,-0.95536 l -2.93836,-0.0637 c -0.44714,0 -0.8304,0.19107 -0.95815,0.70059 l -6.83485,24.83936 c -0.0639,0.25475 -0.31938,0.25475 -0.38327,0 l -6.96259,-24.83936 c -0.12776,-0.50952 -0.44715,-0.70059 -0.89428,-0.70059 h -2.81059 c -0.44715,0 -0.76653,0.19107 -0.89428,0.70059 l -6.83485,24.83936 c -0.0639,0.25475 -0.31939,0.25475 -0.38326,0 l -6.64322,-24.83936 c -0.12775,-0.50952 -0.44714,-0.70059 -0.89428,-0.70059 h -3.00222 c -0.57489,0 -0.89428,0.38214 -0.70265,0.95535 l 8.94279,30.57152 c 0.12776,0.50953 0.44714,0.7006 0.89428,0.7006 z m 49.69643,-32.737 c -6.57934,0 -11.30624,3.18453 -12.13664,7.83395 -0.0639,0.44583 0.25551,0.63691 0.76653,0.70059 l 3.12997,0.38215 c 0.51101,0.0637 0.8304,-0.12738 0.95816,-0.63691 0.70264,-2.675 3.32161,-4.33096 7.34587,-4.33096 5.30179,0 7.47361,2.86608 7.47361,7.00597 v 2.35656 c 0,0.19107 -0.12776,0.31845 -0.31939,0.31845 h -7.40974 c -8.30401,0 -13.15867,3.94882 -13.15867,10.31788 0,6.68752 5.11016,9.29884 10.53972,9.29884 4.02424,0 7.60137,-1.27382 9.96482,-3.75775 0.19163,-0.25476 0.38326,-0.12738 0.38326,0.12738 v 2.29287 c 0,0.50952 0.31939,0.82798 0.8304,0.82798 h 2.87447 c 0.51102,0 0.8304,-0.31846 0.8304,-0.82798 v -21.209 c 0,-6.30536 -4.27976,-10.70002 -12.07277,-10.70002 z m -1.78855,29.36139 c -3.89651,0 -7.02648,-1.78334 -7.02648,-5.66847 0,-4.13989 3.76874,-6.49645 9.32605,-6.49645 h 6.70709 c 0.19163,0 0.31939,0.12739 0.31939,0.31846 v 4.90418 c 0,4.45835 -4.59915,6.94228 -9.32605,6.94228 z m 24.08164,3.37561 h 2.87447 c 0.51101,0 0.8304,-0.31846 0.8304,-0.82798 v -10.57265 c 0,-0.12738 0.0639,-0.31845 0.12775,-0.44584 l 6.96261,-7.26073 c 0.12775,-0.12738 0.38326,-0.12738 0.44714,0.0637 l 8.11238,18.4066 c 0.19164,0.38214 0.51102,0.63691 0.95816,0.63691 h 3.00223 c 0.63877,0 0.89427,-0.38216 0.63877,-0.95537 l -9.58156,-21.08161 c -0.0639,-0.12737 -0.0639,-0.31845 0.0639,-0.44582 l 7.92076,-8.72562 c 0.44714,-0.50953 0.19163,-1.01905 -0.51102,-1.01905 h -3.38548 c -0.38326,0 -0.76652,0.12737 -1.02204,0.44583 l -13.3503,13.94825 c -0.19164,0.25476 -0.38327,0.0637 -0.38327,-0.19107 v -25.73102 c 0,-0.50953 -0.31939,-0.82798 -0.8304,-0.82798 h -2.87447 c -0.51102,0 -0.8304,0.31845 -0.8304,0.82798 v 42.9275 c 0,0.50952 0.31938,0.82798 0.8304,0.82798 z m 42.54215,-3.37561 c -4.66302,0 -7.79301,-2.54763 -8.68728,-6.24169 -0.2555,-0.95535 -0.38326,-2.54762 -0.38326,-4.64941 0,-0.19107 0.12776,-0.31845 0.31939,-0.31845 h 20.44066 c 0.51101,0 0.8304,-0.31846 0.8304,-0.82798 0,-2.99346 -0.0639,-4.64942 -0.38326,-6.36907 -1.14979,-6.68752 -5.17405,-10.95479 -12.77542,-10.95479 -6.32383,0 -10.92298,3.63036 -12.32827,9.10776 -0.51102,1.97442 -0.5749,4.1399 -0.5749,7.38812 0,3.56667 0.31939,6.43275 1.21366,8.7893 1.72469,4.90419 5.87669,7.96134 11.94502,7.96134 5.74894,0 9.90094,-2.80239 11.88114,-6.94229 0.25551,-0.44582 0.0639,-0.82798 -0.38326,-1.08273 l -1.85244,-1.01905 c -0.44714,-0.25477 -0.89428,-0.0637 -1.08591,0.38214 -1.46917,2.86608 -4.21589,4.71311 -8.17627,4.7768 z m -0.63877,-25.41257 c 4.40752,0 7.34587,2.54762 8.24015,6.24168 0.19163,0.89168 0.31938,2.35655 0.38326,4.07621 0,0.19107 -0.12776,0.31844 -0.31939,0.31844 h -16.4164 c -0.19163,0 -0.31939,-0.12737 -0.31939,-0.31844 0.0639,-1.84703 0.19163,-3.31192 0.51101,-4.33097 0.83041,-3.50298 3.57712,-5.98692 7.92076,-5.98692 z m 47.26907,4.58572 c -1.53305,-5.15893 -5.62119,-8.53454 -11.68951,-8.53454 -3.38548,0 -6.25995,1.40119 -8.11239,3.88513 -0.19163,0.19107 -0.38326,0.12738 -0.38326,-0.12738 v -2.42025 c 0,-0.50953 -0.31938,-0.82797 -0.8304,-0.82797 h -2.87447 c -0.51101,0 -0.8304,0.31844 -0.8304,0.82797 v 42.9275 c 0,0.50953 0.31939,0.82798 0.8304,0.82798 h 2.87447 c 0.51102,0 0.8304,-0.31845 0.8304,-0.82798 v -14.71254 c 0,-0.25476 0.19163,-0.38215 0.38326,-0.12738 1.85244,2.42024 4.72691,3.82144 8.11239,3.82144 6.19608,0 10.28422,-3.4393 11.81727,-8.72562 0.63876,-2.16548 0.76652,-4.7768 0.76652,-7.89764 0,-3.24823 -0.19163,-5.85954 -0.89428,-8.08872 z m -5.11016,16.11374 c -1.08592,2.7387 -3.641,4.64942 -7.09037,4.64942 -3.38548,0 -5.68505,-1.97442 -6.70709,-4.7768 -0.76652,-1.71965 -1.14978,-3.63037 -1.14978,-7.89764 0,-4.20358 0.31939,-6.11431 1.08591,-7.77026 1.02203,-2.86608 3.32161,-4.90418 6.83485,-4.90418 3.57711,0 6.32382,1.91071 7.34586,4.96787 0.76653,1.71965 1.14978,3.56668 1.14978,7.70657 0,4.39466 -0.51101,6.30537 -1.46916,8.02502 z m 13.15866,20.82685 h 0.44714 c 7.09035,0 9.00666,-1.78335 11.88113,-9.93575 l 11.75338,-34.0745 c 0.19163,-0.57321 -0.12775,-0.95535 -0.70264,-0.95535 h -3.0661 c -0.44714,0 -0.76653,0.19107 -0.89429,0.70059 l -8.0485,24.96674 c -0.0639,0.31845 -0.31939,0.31845 -0.38327,0 l -8.24014,-24.96674 c -0.12775,-0.44583 -0.51102,-0.70059 -0.95815,-0.70059 h -3.00223 c -0.5749,0 -0.89428,0.38214 -0.70264,0.95535 l 10.73134,31.08105 c 0.0639,0.19107 0.0639,0.25475 0,0.38214 -2.17182,7.13334 -3.57711,8.66193 -8.36789,8.66193 h -0.44714 c -0.25552,0 -0.44715,0.31844 -0.44715,0.82797 v 2.22918 c 0,0.50952 0.19163,0.82798 0.44715,0.82798 z"
       id="text2"
       aria-label="wakepy" /><path
       style="font-weight:bold;font-size:4.21691px;font-family:Barlow;-inkscape-font-specification:'Barlow, Normal';fill:#795c30;stroke-width:0.999995;stroke-linejoin:bevel;stroke-dashoffset:1.57133;paint-order:fill markers stroke"
       d="m 536.90217,329.51788 h 0.47298 c 0.0423,0 0.0718,-0.0253 0.0802,-0.0632 l 0.27872,-1.09901 c 0.004,-0.0253 0.0253,-0.0211 0.0337,0 l 0.31674,1.10322 c 0.0127,0.0378 0.038,0.0589 0.0802,0.0589 h 0.47299 c 0.0423,0 0.0676,-0.0211 0.0802,-0.0589 l 0.60389,-2.02116 c 0.0127,-0.0463 -0.008,-0.08 -0.0591,-0.08 l -0.46454,-0.004 c -0.0423,0 -0.0718,0.0253 -0.0802,0.0631 l -0.32096,1.2506 c -0.004,0.0253 -0.0295,0.0253 -0.0338,0 l -0.32096,-1.2506 c -0.008,-0.0379 -0.038,-0.0631 -0.0802,-0.0631 h -0.41387 c -0.0423,0 -0.0718,0.0211 -0.0802,0.0631 l -0.31251,1.24639 c -0.004,0.0253 -0.0295,0.0211 -0.0337,0 l -0.29139,-1.24639 c -0.008,-0.0421 -0.038,-0.0631 -0.0802,-0.0631 h -0.46454 c -0.0507,0 -0.0718,0.0295 -0.0591,0.08 l 0.59545,2.02538 c 0.0127,0.0378 0.0381,0.0589 0.0802,0.0589 z m 3.50093,-2.19801 c -0.51099,0 -0.88685,0.25686 -0.92908,0.60634 -0.004,0.0337 0.0253,0.0547 0.0676,0.0589 l 0.46876,0.0589 c 0.0423,0.004 0.0676,-0.0127 0.0844,-0.0547 0.0381,-0.10105 0.15203,-0.16 0.32096,-0.16 0.22382,0 0.33784,0.11369 0.33784,0.29474 v 0.0885 c 0,0.0169 -0.0127,0.0253 -0.0253,0.0253 h -0.42654 c -0.57011,0 -0.8784,0.25685 -0.8784,0.68214 0,0.43371 0.30829,0.63162 0.72215,0.63162 0.25339,0 0.44765,-0.0716 0.57856,-0.21476 0.0169,-0.0169 0.0295,-0.0127 0.0295,0.008 v 0.10105 c 0,0.0463 0.0253,0.0716 0.0718,0.0716 h 0.45187 c 0.0465,0 0.0718,-0.0253 0.0718,-0.0716 v -1.40638 c 0,-0.40844 -0.38851,-0.72004 -0.94596,-0.72004 z m -0.0844,1.78956 c -0.17737,0 -0.29984,-0.0927 -0.29984,-0.24422 0,-0.17685 0.15625,-0.2737 0.40964,-0.2737 h 0.29984 c 0.0169,0 0.0253,0.0127 0.0253,0.0253 v 0.14739 c 0,0.20632 -0.19849,0.34527 -0.43497,0.34527 z m 1.51608,0.40845 h 0.45187 c 0.0465,0 0.0718,-0.0253 0.0718,-0.0716 v -0.5895 c 0,-0.0127 0.004,-0.0169 0.0127,-0.0294 l 0.26182,-0.33266 c 0.0127,-0.0127 0.0253,-0.0169 0.0338,0.004 l 0.40964,0.96426 c 0.0169,0.0378 0.0465,0.0547 0.0844,0.0547 h 0.47721 c 0.0549,0 0.076,-0.0379 0.0549,-0.0842 l -0.6208,-1.30954 c -0.004,-0.0127 -0.004,-0.0253 0.004,-0.0337 l 0.51944,-0.64845 c 0.038,-0.0505 0.0126,-0.0885 -0.0465,-0.0885 h -0.51099 c -0.0381,0 -0.0634,0.0169 -0.0887,0.0421 l -0.56167,0.64425 c -0.0127,0.0169 -0.0295,0.0127 -0.0295,-0.008 v -1.38944 c 0,-0.0463 -0.0253,-0.0716 -0.0718,-0.0716 h -0.45187 c -0.0465,0 -0.0718,0.0253 -0.0718,0.0716 v 2.80436 c 0,0.0463 0.0253,0.0716 0.0718,0.0716 z m 3.03217,-0.46739 c -0.23649,0 -0.40964,-0.0969 -0.46875,-0.2695 -0.0127,-0.0337 -0.0211,-0.0758 -0.0295,-0.13052 0,-0.0169 0.008,-0.0253 0.0253,-0.0253 h 1.29648 c 0.0465,0 0.0718,-0.0253 0.0718,-0.0716 -0.004,-0.10948 -0.0127,-0.21475 -0.0253,-0.30738 -0.0929,-0.56846 -0.4012,-0.93058 -0.97131,-0.93058 -0.47298,0 -0.83194,0.2779 -0.94597,0.69056 -0.0338,0.12211 -0.0465,0.25265 -0.0465,0.41265 0,0.13896 0.0169,0.26949 0.0507,0.3916 0.11401,0.44634 0.45608,0.7411 0.98819,0.7411 0.3463,0 0.65036,-0.14317 0.83196,-0.37055 0.0253,-0.0379 0.0253,-0.0674 -0.008,-0.10106 l -0.24071,-0.23159 c -0.0337,-0.0337 -0.0676,-0.0295 -0.10136,0.008 -0.0929,0.11369 -0.23648,0.18527 -0.42653,0.1937 z m -0.10979,-1.22112 c 0.19425,0 0.31672,0.10526 0.36741,0.26528 0.008,0.0253 0.0127,0.0505 0.0169,0.0884 0.004,0.0169 -0.004,0.0253 -0.0211,0.0253 h -0.71793 c -0.0169,0 -0.0253,-0.008 -0.0211,-0.0253 0.004,-0.0421 0.0169,-0.0758 0.0253,-0.10527 0.0465,-0.15159 0.1647,-0.24843 0.35052,-0.24843 z m 3.31511,0.10948 c -0.11402,-0.37055 -0.43075,-0.61898 -0.81505,-0.61898 -0.22383,0 -0.37585,0.0884 -0.48143,0.22738 -0.0127,0.0169 -0.0295,0.0127 -0.0295,-0.008 v -0.11368 c 0,-0.0463 -0.0253,-0.0716 -0.0718,-0.0716 h -0.45187 c -0.0465,0 -0.0718,0.0253 -0.0718,0.0716 v 2.80436 c 0,0.0463 0.0253,0.0716 0.0718,0.0716 h 0.45187 c 0.0465,0 0.0718,-0.0253 0.0718,-0.0716 v -0.86742 c 0,-0.0211 0.0169,-0.0294 0.0295,-0.0127 0.10558,0.13053 0.26183,0.20632 0.48143,0.20632 0.38853,0 0.68414,-0.23579 0.80661,-0.5895 0.0591,-0.1558 0.0802,-0.33686 0.0802,-0.52213 0,-0.17686 -0.0169,-0.34949 -0.0718,-0.50529 z m -0.65457,0.93478 c -0.0676,0.10527 -0.16471,0.16001 -0.29562,0.16001 -0.12247,0 -0.21537,-0.0589 -0.28294,-0.16422 -0.0591,-0.10526 -0.0887,-0.25265 -0.0887,-0.4337 0,-0.17265 0.0295,-0.31581 0.0844,-0.41687 0.0633,-0.11368 0.16048,-0.18107 0.28717,-0.18107 0.13937,0 0.24494,0.0674 0.30828,0.18107 0.0549,0.10106 0.0887,0.24422 0.0887,0.41266 0,0.18526 -0.038,0.33685 -0.10135,0.44212 z m 1.00087,1.48219 h 0.0295 c 0.73481,0 0.89107,-0.1937 1.08533,-0.75794 l 0.72215,-2.16433 c 0.0169,-0.0463 -0.008,-0.08 -0.0591,-0.08 h -0.48566 c -0.0423,0 -0.0718,0.0253 -0.0802,0.0631 l -0.3294,1.2506 c -0.004,0.0211 -0.0295,0.0211 -0.0337,0 l -0.3463,-1.2548 c -0.0127,-0.0379 -0.038,-0.0589 -0.0802,-0.0589 h -0.48565 c -0.0507,0 -0.076,0.0337 -0.0591,0.08 l 0.67991,2.06748 c 0.004,0.008 0.004,0.0211 0,0.0336 -0.0676,0.27792 -0.2027,0.33266 -0.53633,0.33266 h -0.0253 c -0.0169,0 -0.0253,0.0253 -0.0253,0.0716 v 0.34529 c 0,0.0463 0.0127,0.0716 0.0296,0.0716 z"
       id="text2-1"
       aria-label="wakepy" /></g><g
     inkscape:groupmode="layer"
     id="layer3"
     inkscape:label="light"
     style="display:inline"
     transform="translate(-245.9399,-173.62105)"><path
       style="display:inline;fill:#f0f0f0;fill-opacity:0.174655;stroke:none;stroke-width:1.1;stroke-dasharray:none;stroke-dashoffset:1.57133;stroke-opacity:1;paint-order:stroke markers fill"
       d="m 375.1417,281.10613 c -2.86471,-20.43013 -5.80803,-27.3985 -10.31761,-55.14263 0,0 3.2683,-1.14831 6.89252,-3.50464 4.07497,-2.64938 5.50322,-4.53902 5.50322,-4.53902 l 64.55763,62.90299 c -48.28722,0.38348 -32.4764,0.34308 -66.63576,0.2833 z"
       id="path10"
       inkscape:label="light"
       sodipodi:nodetypes="ccsccc" /></g></svg>
